<?xml version="1.0" encoding="UTF-8" standalone="no"?>
<!-- Created with Inkscape (http://www.inkscape.org/) -->

<svg
   xmlns:dc="http://purl.org/dc/elements/1.1/"
   xmlns:cc="http://creativecommons.org/ns#"
   xmlns:rdf="http://www.w3.org/1999/02/22-rdf-syntax-ns#"
   xmlns:svg="http://www.w3.org/2000/svg"
   xmlns="http://www.w3.org/2000/svg"
   xmlns:sodipodi="http://sodipodi.sourceforge.net/DTD/sodipodi-0.dtd"
   xmlns:inkscape="http://www.inkscape.org/namespaces/inkscape"
   width="210mm"
   height="297mm"
   viewBox="0 0 744.09448819 1052.3622047"
   id="svg4710"
   version="1.1"
   inkscape:version="0.91 r13725"
   sodipodi:docname="mtPulseSequenxe.svg">
  <sodipodi:namedview
     id="base"
     pagecolor="#ffffff"
     bordercolor="#666666"
     borderopacity="1.0"
     inkscape:pageopacity="0.0"
     inkscape:pageshadow="2"
     inkscape:zoom="0.75814091"
     inkscape:cx="295.69428"
     inkscape:cy="987.13392"
     inkscape:document-units="px"
     inkscape:current-layer="layer1"
     showgrid="false"
     inkscape:window-width="1440"
     inkscape:window-height="775"
     inkscape:window-x="0"
     inkscape:window-y="1"
     inkscape:window-maximized="1" />
  <defs
     id="defs4712" />
  <metadata
     id="metadata4715">
    <rdf:RDF>
      <cc:Work
         rdf:about="">
        <dc:format>image/svg+xml</dc:format>
        <dc:type
           rdf:resource="http://purl.org/dc/dcmitype/StillImage" />
        <dc:title />
      </cc:Work>
    </rdf:RDF>
  </metadata>
  <g
     id="layer1"
     inkscape:groupmode="layer"
     inkscape:label="Calque 1">
    <path
       inkscape:connector-curvature="0"
       id="path5277"
       d="m 451.81907,151.3622 527.311,0"
       style="fill:none;fill-rule:evenodd;stroke:#000000;stroke-width:2.502;stroke-linecap:butt;stroke-linejoin:miter;stroke-miterlimit:4;stroke-dasharray:none;stroke-opacity:1" />
    <path
       style="fill:none;fill-rule:evenodd;stroke:#000000;stroke-width:2.52029657;stroke-linecap:butt;stroke-linejoin:miter;stroke-miterlimit:4;stroke-dasharray:none;stroke-opacity:1"
       d="m 93.303299,351.3622 885.826771,0"
       id="path5279"
       inkscape:connector-curvature="0" />
    <path
       inkscape:connector-curvature="0"
       id="path5281"
       d="m 93.303299,251.3622 885.826771,0"
       style="fill:none;fill-rule:evenodd;stroke:#000000;stroke-width:2.52029657;stroke-linecap:butt;stroke-linejoin:miter;stroke-miterlimit:4;stroke-dasharray:none;stroke-opacity:1" />
    <path
       inkscape:connector-curvature="0"
       id="path5283"
       d="m 93.303299,451.3622 885.826771,0"
       style="fill:none;fill-rule:evenodd;stroke:#000000;stroke-width:2.52029657;stroke-linecap:butt;stroke-linejoin:miter;stroke-miterlimit:4;stroke-dasharray:none;stroke-opacity:1" />
    <path
       style="fill:none;fill-rule:evenodd;stroke:#000000;stroke-width:2.52029657;stroke-linecap:butt;stroke-linejoin:miter;stroke-miterlimit:4;stroke-dasharray:none;stroke-opacity:1"
       d="m 93.303299,551.3622 885.826771,0"
       id="path5285"
       inkscape:connector-curvature="0" />
    <path
       id="path5301"
       title="t (1/sqrt(2*pi)) * exp(-pow(t,2)/2)"
       d="m 94.966157,151.32918 c 0.399211,-0.0179 0.798421,-0.0363 1.197631,-0.0552 0.39921,-0.0189 0.798421,-0.0383 1.197631,-0.0582 0.39921,-0.0199 0.798421,-0.0404 1.197631,-0.0614 0.39921,-0.021 0.79842,-0.0426 1.197631,-0.0647 0.399209,-0.0221 0.798419,-0.0448 1.197629,-0.0681 0.39921,-0.0233 0.79842,-0.0472 1.19763,-0.0717 0.39921,-0.0245 0.79842,-0.0496 1.19763,-0.0754 0.39921,-0.0258 0.79842,-0.0522 1.19763,-0.0793 0.39921,-0.0271 0.79842,-0.0549 1.19763,-0.0834 0.39921,-0.0285 0.79843,-0.0577 1.19764,-0.0876 0.39921,-0.0299 0.79842,-0.0606 1.19763,-0.092 0.39921,-0.0314 0.79842,-0.0636 1.19763,-0.0966 0.39921,-0.033 0.79842,-0.0667 1.19763,-0.10133 0.39921,-0.0346 0.79842,-0.07 1.19763,-0.10627 0.39921,-0.0363 0.79842,-0.0734 1.19763,-0.11141 0.39921,-0.038 0.79842,-0.0769 1.19763,-0.11674 0.39921,-0.0398 0.79842,-0.0806 1.19763,-0.12226 0.39921,-0.0417 0.79842,-0.0844 1.19763,-0.12799 0.39921,-0.0437 0.79842,-0.0883 1.19763,-0.13394 0.39921,-0.0457 0.79842,-0.0923 1.19763,-0.14008 0.39921,-0.0477 0.79842,-0.0965 1.19763,-0.14644 0.39921,-0.0499 0.79842,-0.1009 1.19763,-0.15303 0.39922,-0.0521 0.79843,-0.10539 1.19764,-0.15982 0.39921,-0.0544 0.79842,-0.11004 1.19763,-0.16686 0.39921,-0.0568 0.79842,-0.11484 1.19763,-0.17411 0.39921,-0.0593 0.79842,-0.11979 1.19763,-0.1816 0.39921,-0.0618 0.79842,-0.1249 1.19763,-0.18932 0.39921,-0.0644 0.79842,-0.13016 1.19763,-0.19727 0.39921,-0.0671 0.79842,-0.13559 1.19763,-0.20547 0.39921,-0.0699 0.79842,-0.14116 1.19763,-0.2139 0.39921,-0.0727 0.79842,-0.14691 1.19763,-0.22257 0.39921,-0.0757 0.79842,-0.15281 1.19763,-0.23149 0.39921,-0.0787 0.79842,-0.15888 1.19763,-0.24065 0.39921,-0.0818 0.79842,-0.1651 1.19763,-0.25005 0.39921,-0.0849 0.79842,-0.17149 1.19764,-0.25969 0.39921,-0.0882 0.79842,-0.17805 1.19763,-0.26959 0.39921,-0.0915 0.79842,-0.18476 1.19763,-0.27972 0.39921,-0.0949 0.79842,-0.19163 1.19763,-0.29008 0.39921,-0.0984 0.79842,-0.19868 1.19763,-0.30071 0.39921,-0.10202 0.79842,-0.20586 1.19763,-0.31155 0.39921,-0.10568 0.79842,-0.21321 1.19763,-0.32263 0.39921,-0.10942 0.79842,-0.22072 1.19763,-0.33395 0.39921,-0.11323 0.79842,-0.22838 1.19763,-0.3455 0.39921,-0.11711 0.79842,-0.23619 1.19763,-0.35726 0.39921,-0.12107 0.79842,-0.24415 1.19763,-0.36925 0.39921,-0.1251 0.79842,-0.25225 1.19763,-0.38145 0.39921,-0.12921 0.79842,-0.26049 1.19763,-0.39386 0.39921,-0.13338 0.79843,-0.26886 1.19764,-0.40647 0.39921,-0.13762 0.79842,-0.27737 1.19763,-0.41928 0.39921,-0.14191 0.79842,-0.286 1.19763,-0.43227 0.39921,-0.14628 0.79842,-0.29475 1.19763,-0.44544 0.39921,-0.1507 0.79842,-0.30362 1.19763,-0.45879 0.39921,-0.15516 0.79842,-0.31259 1.19763,-0.47228 0.39921,-0.15969 0.79842,-0.32167 1.19763,-0.48594 0.39921,-0.16426 0.79842,-0.33083 1.19763,-0.49972 0.39921,-0.16889 0.79842,-0.3401 1.19763,-0.51364 0.39921,-0.17355 0.79842,-0.34944 1.19763,-0.52768 0.39921,-0.17824 0.79842,-0.35884 1.19763,-0.54181 0.39921,-0.18297 0.79842,-0.36831 1.19763,-0.55604 0.39921,-0.18772 0.79842,-0.37783 1.19764,-0.57033 0.39921,-0.1925 0.79842,-0.3874 1.19763,-0.58469 0.39921,-0.1973 0.79842,-0.397 1.19763,-0.5991 0.39921,-0.2021 0.79842,-0.40662 1.19763,-0.61353 0.39921,-0.20692 0.79842,-0.41625 1.19763,-0.62798 0.39921,-0.21173 0.79842,-0.42587 1.19763,-0.64241 0.39921,-0.21654 0.79842,-0.43549 1.19763,-0.65683 0.39921,-0.22134 0.79842,-0.44508 1.19763,-0.6712 0.39921,-0.22612 0.79842,-0.45464 1.19763,-0.68552 0.39921,-0.23087 0.79842,-0.46413 1.19763,-0.69974 0.39921,-0.23561 0.79842,-0.47358 1.19763,-0.71388 0.39921,-0.24029 0.79842,-0.48293 1.19763,-0.72788 0.39921,-0.24494 0.79842,-0.49221 1.19763,-0.74175 0.39921,-0.24954 0.79843,-0.50137 1.19764,-0.75545 0.39921,-0.25408 0.79842,-0.51041 1.19763,-0.76896 0.39921,-0.25855 0.79842,-0.51933 1.19763,-0.78228 0.39921,-0.26294 0.79842,-0.52808 1.19763,-0.79534 0.39921,-0.26727 0.79842,-0.53668 1.19763,-0.80817 0.39921,-0.27149 0.79842,-0.54508 1.19763,-0.82071 0.39921,-0.27562 0.79842,-0.55329 1.19763,-0.83295 0.39921,-0.27965 0.79842,-0.56129 1.19763,-0.84486 0.39921,-0.28357 0.79842,-0.56907 1.19763,-0.85643 0.39921,-0.28736 0.79842,-0.5766 1.19763,-0.86762 0.39921,-0.29103 0.79842,-0.58386 1.19763,-0.87842 0.39921,-0.29456 0.79842,-0.59085 1.19763,-0.88879 0.39921,-0.29794 0.79842,-0.59754 1.19763,-0.89872 0.39922,-0.30117 0.79843,-0.60392 1.19764,-0.90817 0.39921,-0.30425 0.79842,-0.60999 1.19763,-0.91714 0.39921,-0.30714 0.79842,-0.61571 1.19763,-0.92558 0.39921,-0.30987 0.79842,-0.62107 1.19763,-0.93349 0.39921,-0.31241 0.79842,-0.62606 1.19763,-0.94082 0.39921,-0.31477 0.79842,-0.63066 1.19763,-0.94758 0.39921,-0.31692 0.79842,-0.63486 1.19763,-0.95372 0.39921,-0.31886 0.79842,-0.63864 1.19763,-0.95923 0.39921,-0.32059 0.79842,-0.642 1.19763,-0.96409 0.39921,-0.3221 0.79842,-0.6449 1.19763,-0.96828 0.39921,-0.32337 0.79842,-0.64734 1.19763,-0.97176 0.39921,-0.32442 0.79842,-0.64931 1.19763,-0.97453 0.39921,-0.32523 0.79842,-0.6508 1.19764,-0.97658 0.39921,-0.32578 0.79842,-0.65178 1.19763,-0.97786 0.39921,-0.32609 0.79842,-0.65226 1.19763,-0.97839 0.39921,-0.32613 0.79842,-0.65221 1.19763,-0.97812 0.39921,-0.32591 0.79842,-0.65164 1.19763,-0.97706 0.39921,-0.32541 0.79842,-0.65052 1.19763,-0.97517 0.39921,-0.324652 0.79842,-0.648853 1.19763,-0.972464 0.39921,-0.323611 0.79842,-0.646628 1.19763,-0.968915 0.39921,-0.322286 0.79842,-0.643836 1.19763,-0.964511 0.39921,-0.320676 0.79842,-0.640472 1.19763,-0.959248 0.39921,-0.318776 0.79842,-0.636526 1.19763,-0.953111 0.39921,-0.316584 0.79842,-0.631997 1.19763,-0.946096 0.39921,-0.3141 0.79842,-0.626879 1.19763,-0.938197 0.39921,-0.311319 0.79843,-0.621168 1.19764,-0.929408 0.39921,-0.30824 0.79842,-0.614861 1.19763,-0.919725 0.39921,-0.304863 0.79842,-0.607959 1.19763,-0.909147 0.39921,-0.301188 0.79842,-0.600458 1.19763,-0.897672 0.39921,-0.297214 0.79842,-0.59236 1.19763,-0.885302 0.39921,-0.292941 0.79842,-0.583665 1.19763,-0.872038 0.39921,-0.288372 0.79842,-0.574377 1.19763,-0.857884 0.39921,-0.283507 0.79842,-0.564499 1.19763,-0.842846 0.39921,-0.278347 0.79842,-0.554033 1.19763,-0.82693 0.39921,-0.272896 0.79842,-0.542986 1.19763,-0.810143 0.39921,-0.267157 0.79842,-0.531364 1.19763,-0.792497 0.39921,-0.261133 0.79842,-0.519173 1.19763,-0.774001 0.39921,-0.254827 0.79842,-0.506423 1.19763,-0.754668 0.39922,-0.248246 0.79843,-0.493122 1.19764,-0.734514 0.39921,-0.241393 0.79842,-0.47928 1.19763,-0.713553 0.39921,-0.234273 0.79842,-0.464909 1.19763,-0.691802 0.39921,-0.226893 0.79842,-0.45002 1.19763,-0.66928 0.39921,-0.21926 0.79842,-0.434628 1.19763,-0.646007 0.39921,-0.21138 0.79842,-0.418746 1.19763,-0.622006 0.39921,-0.203259 0.79842,-0.402387 1.19763,-0.597296 0.39921,-0.194908 0.79842,-0.38557 1.19763,-0.571904 0.39921,-0.186333 0.79842,-0.368311 1.19763,-0.545855 0.39921,-0.177544 0.79842,-0.350627 1.19763,-0.519175 0.39921,-0.168549 0.79842,-0.332536 1.19763,-0.491893 0.39921,-0.159358 0.79842,-0.314057 1.19763,-0.464037 0.39921,-0.14998 0.79843,-0.295211 1.19764,-0.435637 0.39921,-0.140426 0.79842,-0.276018 1.19763,-0.406726 0.39921,-0.130707 0.79842,-0.256499 1.19763,-0.377333 0.39921,-0.120833 0.79842,-0.236677 1.19763,-0.347494 0.39921,-0.110816 0.79842,-0.216574 1.19763,-0.317242 0.39921,-0.100668 0.79842,-0.196214 1.19763,-0.286612 0.39921,-0.0904 0.79842,-0.175619 1.19763,-0.25564 0.39921,-0.08002 0.79842,-0.154813 1.19763,-0.224362 0.39921,-0.06955 0.79842,-0.133822 1.19763,-0.192814 0.39921,-0.05899 0.79842,-0.11267 1.19763,-0.161034 0.39921,-0.04836 0.79842,-0.09138 1.19763,-0.129061 0.39921,-0.03768 0.79842,-0.06999 1.19763,-0.09693 0.39921,-0.02695 0.79842,-0.0485 1.19763,-0.06469 0.39922,-0.01618 0.79843,-0.02696 1.19764,-0.03236 0.39921,-0.0054 0.79842,-0.0054 1.19763,0 0.39921,0.0054 0.79842,0.01619 1.19763,0.03236 0.39921,0.01617 0.79842,0.03775 1.19763,0.06469 0.39921,0.02694 0.79842,0.05926 1.19763,0.09693 0.39921,0.03767 0.79842,0.08071 1.19763,0.129061 0.39921,0.04835 0.79842,0.102053 1.19763,0.161034 0.39921,0.05898 0.79842,0.123276 1.19763,0.192814 0.39921,0.06954 0.79842,0.144351 1.19763,0.224362 0.39921,0.08001 0.79842,0.165252 1.19763,0.25564 0.39921,0.09039 0.79842,0.185955 1.19763,0.286612 0.39921,0.100657 0.79842,0.206436 1.19763,0.317242 0.39921,0.110807 0.79842,0.226671 1.19764,0.347494 0.39921,0.120824 0.79842,0.246636 1.19763,0.377333 0.39921,0.130698 0.79842,0.266309 1.19763,0.406726 0.39921,0.140416 0.79842,0.285667 1.19763,0.435637 0.39921,0.14997 0.79842,0.304689 1.19763,0.464037 0.39921,0.159348 0.79842,0.323353 1.19763,0.491893 0.39921,0.168539 0.79842,0.34164 1.19763,0.519175 0.39921,0.177535 0.79842,0.359531 1.19763,0.545855 0.39921,0.186325 0.79842,0.377005 1.19763,0.571904 0.39921,0.1949 0.79842,0.394045 1.19763,0.597296 0.39921,0.203252 0.79842,0.410634 1.19763,0.622006 0.39921,0.211371 0.79842,0.426755 1.19763,0.646007 0.39921,0.219252 0.79842,0.442394 1.19763,0.66928 0.39921,0.226886 0.79843,0.457536 1.19764,0.691802 0.39921,0.234265 0.79842,0.472167 1.19763,0.713553 0.39921,0.241385 0.79842,0.486275 1.19763,0.734514 0.39921,0.248239 0.79842,0.499847 1.19763,0.754668 0.39921,0.254821 0.79842,0.512874 1.19763,0.774001 0.39921,0.261127 0.79842,0.525346 1.19763,0.792497 0.39921,0.267151 0.79842,0.537252 1.19763,0.810143 0.39921,0.272891 0.79842,0.548588 1.19763,0.82693 0.39921,0.278342 0.79842,0.559344 1.19763,0.842846 0.39921,0.283502 0.79842,0.569517 1.19763,0.857884 0.39921,0.288368 0.79842,0.579101 1.19763,0.872038 0.39921,0.292938 0.79842,0.588092 1.19763,0.885302 0.39921,0.29721 0.79842,0.596488 1.19763,0.897672 0.39922,0.301185 0.79843,0.604287 1.19764,0.909147 0.39921,0.30486 0.79842,0.611488 1.19763,0.919725 0.39921,0.308237 0.79842,0.618092 1.19763,0.929408 0.39921,0.311315 0.79842,0.6241 1.19763,0.938197 0.39921,0.314097 0.79842,0.629514 1.19763,0.946096 0.39921,0.316583 0.79842,0.634337 1.19763,0.953111 0.39921,0.318774 0.79842,0.638574 1.19763,0.959248 0.39921,0.320673 0.79842,0.642227 1.19763,0.964511 0.39921,0.322285 0.79842,0.645305 1.19763,0.968915 0.39921,0.32361 0.79842,0.647812 1.19763,0.972464 0.39921,0.32465 0.79842,0.64976 1.19763,0.97517 0.39921,0.32542 0.79842,0.65115 1.19763,0.97706 0.39921,0.32591 0.79843,0.65199 1.19764,0.97812 0.39921,0.32613 0.79842,0.6523 1.19763,0.97839 0.39921,0.32608 0.79842,0.65208 1.19763,0.97786 0.39921,0.32578 0.79842,0.65135 1.19763,0.97658 0.39921,0.32522 0.79842,0.65011 1.19763,0.97453 0.39921,0.32443 0.79842,0.64838 1.19763,0.97176 0.39921,0.32338 0.79842,0.64618 1.19763,0.96828 0.39921,0.32209 0.79842,0.64349 1.19763,0.96409 0.39921,0.32059 0.79842,0.64037 1.19763,0.95923 0.39921,0.31886 0.79842,0.6368 1.19763,0.95372 0.39921,0.31692 0.79842,0.63281 1.19763,0.94758 0.39921,0.31477 0.79842,0.62841 1.19763,0.94082 0.39921,0.31242 0.79842,0.62361 1.19763,0.93349 0.39922,0.30988 0.79843,0.61843 1.19764,0.92558 0.39921,0.30715 0.79842,0.61289 1.19763,0.91714 0.39921,0.30425 0.79842,0.607 1.19763,0.90817 0.39921,0.30118 0.79842,0.60078 1.19763,0.89872 0.39921,0.29795 0.79842,0.59423 1.19763,0.88879 0.39921,0.29456 0.79842,0.58739 1.19763,0.87842 0.39921,0.29103 0.79842,0.58025 1.19763,0.86762 0.39921,0.28736 0.79842,0.57286 1.19763,0.85643 0.39921,0.28357 0.79842,0.56521 1.19763,0.84486 0.39921,0.27966 0.79842,0.55732 1.19763,0.83295 0.39921,0.27563 0.79842,0.54921 1.19763,0.82071 0.39921,0.2715 0.79842,0.5409 1.19763,0.80817 0.39921,0.26727 0.79842,0.53239 1.19764,0.79534 0.39921,0.26296 0.79842,0.52372 1.19763,0.78228 0.39921,0.25855 0.79842,0.51488 1.19763,0.76896 0.39921,0.25408 0.79842,0.50591 1.19763,0.75545 0.39921,0.24955 0.79842,0.4968 1.19763,0.74175 0.39921,0.24495 0.79842,0.48758 1.19763,0.72788 0.39921,0.24031 0.79842,0.47827 1.19763,0.71388 0.39921,0.23561 0.79842,0.46886 1.19763,0.69974 0.39921,0.23089 0.79842,0.45939 1.19763,0.68552 0.39921,0.22612 0.79842,0.44986 1.19763,0.6712 0.39921,0.22134 0.79842,0.44028 1.19763,0.65683 0.39921,0.21654 0.79842,0.43068 1.19763,0.64241 0.39921,0.21174 0.79842,0.42106 1.19763,0.62798 0.39921,0.20692 0.79843,0.41142 1.19764,0.61353 0.39921,0.2021 0.79842,0.4018 1.19763,0.5991 0.39921,0.19729 0.79842,0.39219 1.19763,0.58469 0.39921,0.1925 0.79842,0.38261 1.19763,0.57033 0.39921,0.18773 0.79842,0.37307 1.19763,0.55604 0.39921,0.18297 0.79842,0.36357 1.19763,0.54181 0.39921,0.17825 0.79842,0.35413 1.19763,0.52768 0.39921,0.17355 0.79842,0.34475 1.19763,0.51364 0.39921,0.16889 0.79842,0.33545 1.19763,0.49972 0.39921,0.16428 0.79842,0.32624 1.19763,0.48594 0.39921,0.1597 0.79842,0.31711 1.19763,0.47228 0.39921,0.15517 0.79842,0.30809 1.19763,0.45879 0.39921,0.15069 0.79842,0.29916 1.19763,0.44544 0.39922,0.14628 0.79843,0.29035 1.19764,0.43227 0.39921,0.14191 0.79842,0.28166 1.19763,0.41928 0.39921,0.13761 0.79842,0.27309 1.19763,0.40647 0.39921,0.13338 0.79842,0.26465 1.19763,0.39386 0.39921,0.12921 0.79842,0.25634 1.19763,0.38145 0.39921,0.12511 0.79842,0.24818 1.19763,0.36925 0.39921,0.12108 0.79842,0.24015 1.19763,0.35726 0.39921,0.11712 0.79842,0.23227 1.19763,0.3455 0.39921,0.11323 0.79842,0.22453 1.19763,0.33395 0.39921,0.10942 0.79842,0.21695 1.19763,0.32263 0.39921,0.10569 0.79842,0.20952 1.19763,0.31155 0.39921,0.10204 0.79842,0.20225 1.19763,0.30071 0.39921,0.0985 0.79842,0.19513 1.19764,0.29008 0.39921,0.095 0.79842,0.18818 1.19763,0.27972 0.39921,0.0915 0.79842,0.18139 1.19763,0.26959 0.39921,0.0882 0.79842,0.17475 1.19763,0.25969 0.39921,0.0849 0.79842,0.16828 1.19763,0.25005 0.39921,0.0818 0.79842,0.16197 1.19763,0.24065 0.39921,0.0787 0.79842,0.15583 1.19763,0.23149 0.39921,0.0757 0.79842,0.14984 1.19763,0.22257 0.39921,0.0727 0.79842,0.14402 1.19763,0.2139 0.39921,0.0699 0.79842,0.13836 1.19763,0.20547 0.39921,0.0671 0.79842,0.13285 1.19763,0.19727 0.39921,0.0644 0.79842,0.12751 1.19763,0.18932 0.39921,0.0618 0.79842,0.12233 1.19763,0.1816 0.39922,0.0593 0.79843,0.1173 1.19764,0.17411 0.39921,0.0568 0.79842,0.11242 1.19763,0.16686 0.39921,0.0544 0.79842,0.10769 1.19763,0.15982 0.39921,0.0521 0.79842,0.10313 1.19763,0.15303 0.39921,0.0499 0.79842,0.0987 1.19763,0.14644 0.39921,0.0478 0.79842,0.0944 1.19763,0.14008 0.39921,0.0457 0.79842,0.0903 1.19763,0.13394 0.39921,0.0436 0.79842,0.0863 1.19763,0.12799 0.39921,0.0417 0.79842,0.0824 1.19763,0.12226 0.39921,0.0398 0.79842,0.0787 1.19763,0.11674 0.39921,0.038 0.79842,0.0751 1.19763,0.11141 0.39921,0.0363 0.79842,0.0717 1.19763,0.10627 0.39921,0.0346 0.79842,0.0684 1.19764,0.10133 0.39921,0.033 0.79842,0.0651 1.19763,0.0966 0.39921,0.0314 0.79842,0.0621 1.19763,0.092 0.39921,0.0299 0.79842,0.0591 1.19763,0.0876 0.39921,0.0285 0.79842,0.0563 1.19763,0.0834 0.39921,0.0271 0.79842,0.0535 1.19763,0.0793 0.39921,0.0258 0.79842,0.0509 1.19763,0.0754 0.39921,0.0245 0.79842,0.0484 1.19763,0.0717 0.39921,0.0233 0.79842,0.046 1.19763,0.0681 0.39921,0.0221 0.79842,0.0437 1.19763,0.0647 0.39921,0.021 0.79842,0.0414 1.19763,0.0614 0.39921,0.0199 0.79842,0.0393 1.19763,0.0582 0.39921,0.0189 0.79842,0.0373 1.19763,0.0552"
       style="fill:#ffffff;fill-opacity:1;stroke:#000000;stroke-width:2.50200009;stroke-miterlimit:4;stroke-dasharray:none;stroke-opacity:1"
       inkscape:connector-curvature="0" />
  </g>
</svg>
