<?xml version="1.0" encoding="UTF-8" standalone="no"?>
<!-- Created with Inkscape (http://www.inkscape.org/) -->

<svg
   xmlns:dc="http://purl.org/dc/elements/1.1/"
   xmlns:cc="http://creativecommons.org/ns#"
   xmlns:rdf="http://www.w3.org/1999/02/22-rdf-syntax-ns#"
   xmlns:svg="http://www.w3.org/2000/svg"
   xmlns="http://www.w3.org/2000/svg"
   xmlns:sodipodi="http://sodipodi.sourceforge.net/DTD/sodipodi-0.dtd"
   xmlns:inkscape="http://www.inkscape.org/namespaces/inkscape"
   sodipodi:docname="mtPulseSequenxe.svg"
   inkscape:version="0.91 r13725"
   version="1.1"
   id="svg4710"
   viewBox="0 0 985.28537 491.0734"
   height="138.59183mm"
   width="278.06943mm"
   inkscape:export-filename="/Users/mathieuboudreau/Work/Thesis/Figures/png/mtPulseSequenxe.png"
   inkscape:export-xdpi="300"
   inkscape:export-ydpi="300">
  <sodipodi:namedview
     fit-margin-bottom="0"
     fit-margin-right="0"
     fit-margin-left="0"
     fit-margin-top="0"
     inkscape:window-maximized="0"
     inkscape:window-y="0"
     inkscape:window-x="17"
     inkscape:window-height="775"
     inkscape:window-width="1440"
     showgrid="false"
     inkscape:current-layer="layer1"
     inkscape:document-units="px"
     inkscape:cy="125.4408"
     inkscape:cx="535.16575"
     inkscape:zoom="0.7075"
     inkscape:pageshadow="2"
     inkscape:pageopacity="0.0"
     borderopacity="1.0"
     bordercolor="#666666"
     pagecolor="#ffffff"
     id="base" />
  <defs
     id="defs4712" />
  <metadata
     id="metadata4715">
    <rdf:RDF>
      <cc:Work
         rdf:about="">
        <dc:format>image/svg+xml</dc:format>
        <dc:type
           rdf:resource="http://purl.org/dc/dcmitype/StillImage" />
        <dc:title />
      </cc:Work>
    </rdf:RDF>
  </metadata>
  <g
     transform="translate(6.1553116,-70.582175)"
     inkscape:label="Calque 1"
     inkscape:groupmode="layer"
     id="layer1">
    <path
       style="fill:none;fill-rule:evenodd;stroke:#000000;stroke-width:2.50200009;stroke-linecap:butt;stroke-linejoin:miter;stroke-miterlimit:4;stroke-dasharray:none;stroke-opacity:1"
       d="m 451.81911,151.36221 160.66041,0"
       id="path5277"
       inkscape:connector-curvature="0" />
    <path
       inkscape:connector-curvature="0"
       id="path5279"
       d="m 93.303299,351.3622 885.826771,0"
       style="fill:none;fill-rule:evenodd;stroke:#000000;stroke-width:2.52029657;stroke-linecap:butt;stroke-linejoin:miter;stroke-miterlimit:4;stroke-dasharray:none;stroke-opacity:1" />
    <path
       style="fill:none;fill-rule:evenodd;stroke:#000000;stroke-width:2.51520371;stroke-linecap:butt;stroke-linejoin:miter;stroke-miterlimit:4;stroke-dasharray:none;stroke-opacity:1"
       d="m 93.303299,252.12158 361.983421,0"
       id="path5281"
       inkscape:connector-curvature="0" />
    <path
       style="fill:none;fill-rule:evenodd;stroke:#000000;stroke-width:2.52029586;stroke-linecap:butt;stroke-linejoin:miter;stroke-miterlimit:4;stroke-dasharray:none;stroke-opacity:1"
       d="m 93.303293,451.36217 584.867647,0"
       id="path5283"
       inkscape:connector-curvature="0" />
    <path
       inkscape:connector-curvature="0"
       id="path5285"
       d="m 93.303299,551.36221 685.984731,0"
       style="fill:none;fill-rule:evenodd;stroke:#000000;stroke-width:2.52029657;stroke-linecap:butt;stroke-linejoin:miter;stroke-miterlimit:4;stroke-dasharray:none;stroke-opacity:1" />
    <path
       inkscape:connector-curvature="0"
       style="fill:none;fill-opacity:1;stroke:#000000;stroke-width:2.50200009;stroke-miterlimit:4;stroke-dasharray:none;stroke-opacity:1"
       d="m 94.966157,151.32918 c 0.399211,-0.0179 0.798421,-0.0363 1.197631,-0.0552 0.39921,-0.0189 0.798421,-0.0383 1.197631,-0.0582 0.39921,-0.0199 0.798421,-0.0404 1.197631,-0.0614 0.39921,-0.021 0.79842,-0.0426 1.197631,-0.0647 0.399209,-0.0221 0.798419,-0.0448 1.197629,-0.0681 0.39921,-0.0233 0.79842,-0.0472 1.19763,-0.0717 0.39921,-0.0245 0.79842,-0.0496 1.19763,-0.0754 0.39921,-0.0258 0.79842,-0.0522 1.19763,-0.0793 0.39921,-0.0271 0.79842,-0.0549 1.19763,-0.0834 0.39921,-0.0285 0.79843,-0.0577 1.19764,-0.0876 0.39921,-0.0299 0.79842,-0.0606 1.19763,-0.092 0.39921,-0.0314 0.79842,-0.0636 1.19763,-0.0966 0.39921,-0.033 0.79842,-0.0667 1.19763,-0.10133 0.39921,-0.0346 0.79842,-0.07 1.19763,-0.10627 0.39921,-0.0363 0.79842,-0.0734 1.19763,-0.11141 0.39921,-0.038 0.79842,-0.0769 1.19763,-0.11674 0.39921,-0.0398 0.79842,-0.0806 1.19763,-0.12226 0.39921,-0.0417 0.79842,-0.0844 1.19763,-0.12799 0.39921,-0.0437 0.79842,-0.0883 1.19763,-0.13394 0.39921,-0.0457 0.79842,-0.0923 1.19763,-0.14008 0.39921,-0.0477 0.79842,-0.0965 1.19763,-0.14644 0.39921,-0.0499 0.79842,-0.1009 1.19763,-0.15303 0.39922,-0.0521 0.79843,-0.10539 1.19764,-0.15982 0.39921,-0.0544 0.79842,-0.11004 1.19763,-0.16686 0.39921,-0.0568 0.79842,-0.11484 1.19763,-0.17411 0.39921,-0.0593 0.79842,-0.11979 1.19763,-0.1816 0.39921,-0.0618 0.79842,-0.1249 1.19763,-0.18932 0.39921,-0.0644 0.79842,-0.13016 1.19763,-0.19727 0.39921,-0.0671 0.79842,-0.13559 1.19763,-0.20547 0.39921,-0.0699 0.79842,-0.14116 1.19763,-0.2139 0.39921,-0.0727 0.79842,-0.14691 1.19763,-0.22257 0.39921,-0.0757 0.79842,-0.15281 1.19763,-0.23149 0.39921,-0.0787 0.79842,-0.15888 1.19763,-0.24065 0.39921,-0.0818 0.79842,-0.1651 1.19763,-0.25005 0.39921,-0.0849 0.79842,-0.17149 1.19764,-0.25969 0.39921,-0.0882 0.79842,-0.17805 1.19763,-0.26959 0.39921,-0.0915 0.79842,-0.18476 1.19763,-0.27972 0.39921,-0.0949 0.79842,-0.19163 1.19763,-0.29008 0.39921,-0.0984 0.79842,-0.19868 1.19763,-0.30071 0.39921,-0.10202 0.79842,-0.20586 1.19763,-0.31155 0.39921,-0.10568 0.79842,-0.21321 1.19763,-0.32263 0.39921,-0.10942 0.79842,-0.22072 1.19763,-0.33395 0.39921,-0.11323 0.79842,-0.22838 1.19763,-0.3455 0.39921,-0.11711 0.79842,-0.23619 1.19763,-0.35726 0.39921,-0.12107 0.79842,-0.24415 1.19763,-0.36925 0.39921,-0.1251 0.79842,-0.25225 1.19763,-0.38145 0.39921,-0.12921 0.79842,-0.26049 1.19763,-0.39386 0.39921,-0.13338 0.79843,-0.26886 1.19764,-0.40647 0.39921,-0.13762 0.79842,-0.27737 1.19763,-0.41928 0.39921,-0.14191 0.79842,-0.286 1.19763,-0.43227 0.39921,-0.14628 0.79842,-0.29475 1.19763,-0.44544 0.39921,-0.1507 0.79842,-0.30362 1.19763,-0.45879 0.39921,-0.15516 0.79842,-0.31259 1.19763,-0.47228 0.39921,-0.15969 0.79842,-0.32167 1.19763,-0.48594 0.39921,-0.16426 0.79842,-0.33083 1.19763,-0.49972 0.39921,-0.16889 0.79842,-0.3401 1.19763,-0.51364 0.39921,-0.17355 0.79842,-0.34944 1.19763,-0.52768 0.39921,-0.17824 0.79842,-0.35884 1.19763,-0.54181 0.39921,-0.18297 0.79842,-0.36831 1.19763,-0.55604 0.39921,-0.18772 0.79842,-0.37783 1.19764,-0.57033 0.39921,-0.1925 0.79842,-0.3874 1.19763,-0.58469 0.39921,-0.1973 0.79842,-0.397 1.19763,-0.5991 0.39921,-0.2021 0.79842,-0.40662 1.19763,-0.61353 0.39921,-0.20692 0.79842,-0.41625 1.19763,-0.62798 0.39921,-0.21173 0.79842,-0.42587 1.19763,-0.64241 0.39921,-0.21654 0.79842,-0.43549 1.19763,-0.65683 0.39921,-0.22134 0.79842,-0.44508 1.19763,-0.6712 0.39921,-0.22612 0.79842,-0.45464 1.19763,-0.68552 0.39921,-0.23087 0.79842,-0.46413 1.19763,-0.69974 0.39921,-0.23561 0.79842,-0.47358 1.19763,-0.71388 0.39921,-0.24029 0.79842,-0.48293 1.19763,-0.72788 0.39921,-0.24494 0.79842,-0.49221 1.19763,-0.74175 0.39921,-0.24954 0.79843,-0.50137 1.19764,-0.75545 0.39921,-0.25408 0.79842,-0.51041 1.19763,-0.76896 0.39921,-0.25855 0.79842,-0.51933 1.19763,-0.78228 0.39921,-0.26294 0.79842,-0.52808 1.19763,-0.79534 0.39921,-0.26727 0.79842,-0.53668 1.19763,-0.80817 0.39921,-0.27149 0.79842,-0.54508 1.19763,-0.82071 0.39921,-0.27562 0.79842,-0.55329 1.19763,-0.83295 0.39921,-0.27965 0.79842,-0.56129 1.19763,-0.84486 0.39921,-0.28357 0.79842,-0.56907 1.19763,-0.85643 0.39921,-0.28736 0.79842,-0.5766 1.19763,-0.86762 0.39921,-0.29103 0.79842,-0.58386 1.19763,-0.87842 0.39921,-0.29456 0.79842,-0.59085 1.19763,-0.88879 0.39921,-0.29794 0.79842,-0.59754 1.19763,-0.89872 0.39922,-0.30117 0.79843,-0.60392 1.19764,-0.90817 0.39921,-0.30425 0.79842,-0.60999 1.19763,-0.91714 0.39921,-0.30714 0.79842,-0.61571 1.19763,-0.92558 0.39921,-0.30987 0.79842,-0.62107 1.19763,-0.93349 0.39921,-0.31241 0.79842,-0.62606 1.19763,-0.94082 0.39921,-0.31477 0.79842,-0.63066 1.19763,-0.94758 0.39921,-0.31692 0.79842,-0.63486 1.19763,-0.95372 0.39921,-0.31886 0.79842,-0.63864 1.19763,-0.95923 0.39921,-0.32059 0.79842,-0.642 1.19763,-0.96409 0.39921,-0.3221 0.79842,-0.6449 1.19763,-0.96828 0.39921,-0.32337 0.79842,-0.64734 1.19763,-0.97176 0.39921,-0.32442 0.79842,-0.64931 1.19763,-0.97453 0.39921,-0.32523 0.79842,-0.6508 1.19764,-0.97658 0.39921,-0.32578 0.79842,-0.65178 1.19763,-0.97786 0.39921,-0.32609 0.79842,-0.65226 1.19763,-0.97839 0.39921,-0.32613 0.79842,-0.65221 1.19763,-0.97812 0.39921,-0.32591 0.79842,-0.65164 1.19763,-0.97706 0.39921,-0.32541 0.79842,-0.65052 1.19763,-0.97517 0.39921,-0.324652 0.79842,-0.648853 1.19763,-0.972464 0.39921,-0.323611 0.79842,-0.646628 1.19763,-0.968915 0.39921,-0.322286 0.79842,-0.643836 1.19763,-0.964511 0.39921,-0.320676 0.79842,-0.640472 1.19763,-0.959248 0.39921,-0.318776 0.79842,-0.636526 1.19763,-0.953111 0.39921,-0.316584 0.79842,-0.631997 1.19763,-0.946096 0.39921,-0.3141 0.79842,-0.626879 1.19763,-0.938197 0.39921,-0.311319 0.79843,-0.621168 1.19764,-0.929408 0.39921,-0.30824 0.79842,-0.614861 1.19763,-0.919725 0.39921,-0.304863 0.79842,-0.607959 1.19763,-0.909147 0.39921,-0.301188 0.79842,-0.600458 1.19763,-0.897672 0.39921,-0.297214 0.79842,-0.59236 1.19763,-0.885302 0.39921,-0.292941 0.79842,-0.583665 1.19763,-0.872038 0.39921,-0.288372 0.79842,-0.574377 1.19763,-0.857884 0.39921,-0.283507 0.79842,-0.564499 1.19763,-0.842846 0.39921,-0.278347 0.79842,-0.554033 1.19763,-0.82693 0.39921,-0.272896 0.79842,-0.542986 1.19763,-0.810143 0.39921,-0.267157 0.79842,-0.531364 1.19763,-0.792497 0.39921,-0.261133 0.79842,-0.519173 1.19763,-0.774001 0.39921,-0.254827 0.79842,-0.506423 1.19763,-0.754668 0.39922,-0.248246 0.79843,-0.493122 1.19764,-0.734514 0.39921,-0.241393 0.79842,-0.47928 1.19763,-0.713553 0.39921,-0.234273 0.79842,-0.464909 1.19763,-0.691802 0.39921,-0.226893 0.79842,-0.45002 1.19763,-0.66928 0.39921,-0.21926 0.79842,-0.434628 1.19763,-0.646007 0.39921,-0.21138 0.79842,-0.418746 1.19763,-0.622006 0.39921,-0.203259 0.79842,-0.402387 1.19763,-0.597296 0.39921,-0.194908 0.79842,-0.38557 1.19763,-0.571904 0.39921,-0.186333 0.79842,-0.368311 1.19763,-0.545855 0.39921,-0.177544 0.79842,-0.350627 1.19763,-0.519175 0.39921,-0.168549 0.79842,-0.332536 1.19763,-0.491893 0.39921,-0.159358 0.79842,-0.314057 1.19763,-0.464037 0.39921,-0.14998 0.79843,-0.295211 1.19764,-0.435637 0.39921,-0.140426 0.79842,-0.276018 1.19763,-0.406726 0.39921,-0.130707 0.79842,-0.256499 1.19763,-0.377333 0.39921,-0.120833 0.79842,-0.236677 1.19763,-0.347494 0.39921,-0.110816 0.79842,-0.216574 1.19763,-0.317242 0.39921,-0.100668 0.79842,-0.196214 1.19763,-0.286612 0.39921,-0.0904 0.79842,-0.175619 1.19763,-0.25564 0.39921,-0.08002 0.79842,-0.154813 1.19763,-0.224362 0.39921,-0.06955 0.79842,-0.133822 1.19763,-0.192814 0.39921,-0.05899 0.79842,-0.11267 1.19763,-0.161034 0.39921,-0.04836 0.79842,-0.09138 1.19763,-0.129061 0.39921,-0.03768 0.79842,-0.06999 1.19763,-0.09693 0.39921,-0.02695 0.79842,-0.0485 1.19763,-0.06469 0.39922,-0.01618 0.79843,-0.02696 1.19764,-0.03236 0.39921,-0.0054 0.79842,-0.0054 1.19763,0 0.39921,0.0054 0.79842,0.01619 1.19763,0.03236 0.39921,0.01617 0.79842,0.03775 1.19763,0.06469 0.39921,0.02694 0.79842,0.05926 1.19763,0.09693 0.39921,0.03767 0.79842,0.08071 1.19763,0.129061 0.39921,0.04835 0.79842,0.102053 1.19763,0.161034 0.39921,0.05898 0.79842,0.123276 1.19763,0.192814 0.39921,0.06954 0.79842,0.144351 1.19763,0.224362 0.39921,0.08001 0.79842,0.165252 1.19763,0.25564 0.39921,0.09039 0.79842,0.185955 1.19763,0.286612 0.39921,0.100657 0.79842,0.206436 1.19763,0.317242 0.39921,0.110807 0.79842,0.226671 1.19764,0.347494 0.39921,0.120824 0.79842,0.246636 1.19763,0.377333 0.39921,0.130698 0.79842,0.266309 1.19763,0.406726 0.39921,0.140416 0.79842,0.285667 1.19763,0.435637 0.39921,0.14997 0.79842,0.304689 1.19763,0.464037 0.39921,0.159348 0.79842,0.323353 1.19763,0.491893 0.39921,0.168539 0.79842,0.34164 1.19763,0.519175 0.39921,0.177535 0.79842,0.359531 1.19763,0.545855 0.39921,0.186325 0.79842,0.377005 1.19763,0.571904 0.39921,0.1949 0.79842,0.394045 1.19763,0.597296 0.39921,0.203252 0.79842,0.410634 1.19763,0.622006 0.39921,0.211371 0.79842,0.426755 1.19763,0.646007 0.39921,0.219252 0.79842,0.442394 1.19763,0.66928 0.39921,0.226886 0.79843,0.457536 1.19764,0.691802 0.39921,0.234265 0.79842,0.472167 1.19763,0.713553 0.39921,0.241385 0.79842,0.486275 1.19763,0.734514 0.39921,0.248239 0.79842,0.499847 1.19763,0.754668 0.39921,0.254821 0.79842,0.512874 1.19763,0.774001 0.39921,0.261127 0.79842,0.525346 1.19763,0.792497 0.39921,0.267151 0.79842,0.537252 1.19763,0.810143 0.39921,0.272891 0.79842,0.548588 1.19763,0.82693 0.39921,0.278342 0.79842,0.559344 1.19763,0.842846 0.39921,0.283502 0.79842,0.569517 1.19763,0.857884 0.39921,0.288368 0.79842,0.579101 1.19763,0.872038 0.39921,0.292938 0.79842,0.588092 1.19763,0.885302 0.39921,0.29721 0.79842,0.596488 1.19763,0.897672 0.39922,0.301185 0.79843,0.604287 1.19764,0.909147 0.39921,0.30486 0.79842,0.611488 1.19763,0.919725 0.39921,0.308237 0.79842,0.618092 1.19763,0.929408 0.39921,0.311315 0.79842,0.6241 1.19763,0.938197 0.39921,0.314097 0.79842,0.629514 1.19763,0.946096 0.39921,0.316583 0.79842,0.634337 1.19763,0.953111 0.39921,0.318774 0.79842,0.638574 1.19763,0.959248 0.39921,0.320673 0.79842,0.642227 1.19763,0.964511 0.39921,0.322285 0.79842,0.645305 1.19763,0.968915 0.39921,0.32361 0.79842,0.647812 1.19763,0.972464 0.39921,0.32465 0.79842,0.64976 1.19763,0.97517 0.39921,0.32542 0.79842,0.65115 1.19763,0.97706 0.39921,0.32591 0.79843,0.65199 1.19764,0.97812 0.39921,0.32613 0.79842,0.6523 1.19763,0.97839 0.39921,0.32608 0.79842,0.65208 1.19763,0.97786 0.39921,0.32578 0.79842,0.65135 1.19763,0.97658 0.39921,0.32522 0.79842,0.65011 1.19763,0.97453 0.39921,0.32443 0.79842,0.64838 1.19763,0.97176 0.39921,0.32338 0.79842,0.64618 1.19763,0.96828 0.39921,0.32209 0.79842,0.64349 1.19763,0.96409 0.39921,0.32059 0.79842,0.64037 1.19763,0.95923 0.39921,0.31886 0.79842,0.6368 1.19763,0.95372 0.39921,0.31692 0.79842,0.63281 1.19763,0.94758 0.39921,0.31477 0.79842,0.62841 1.19763,0.94082 0.39921,0.31242 0.79842,0.62361 1.19763,0.93349 0.39922,0.30988 0.79843,0.61843 1.19764,0.92558 0.39921,0.30715 0.79842,0.61289 1.19763,0.91714 0.39921,0.30425 0.79842,0.607 1.19763,0.90817 0.39921,0.30118 0.79842,0.60078 1.19763,0.89872 0.39921,0.29795 0.79842,0.59423 1.19763,0.88879 0.39921,0.29456 0.79842,0.58739 1.19763,0.87842 0.39921,0.29103 0.79842,0.58025 1.19763,0.86762 0.39921,0.28736 0.79842,0.57286 1.19763,0.85643 0.39921,0.28357 0.79842,0.56521 1.19763,0.84486 0.39921,0.27966 0.79842,0.55732 1.19763,0.83295 0.39921,0.27563 0.79842,0.54921 1.19763,0.82071 0.39921,0.2715 0.79842,0.5409 1.19763,0.80817 0.39921,0.26727 0.79842,0.53239 1.19764,0.79534 0.39921,0.26296 0.79842,0.52372 1.19763,0.78228 0.39921,0.25855 0.79842,0.51488 1.19763,0.76896 0.39921,0.25408 0.79842,0.50591 1.19763,0.75545 0.39921,0.24955 0.79842,0.4968 1.19763,0.74175 0.39921,0.24495 0.79842,0.48758 1.19763,0.72788 0.39921,0.24031 0.79842,0.47827 1.19763,0.71388 0.39921,0.23561 0.79842,0.46886 1.19763,0.69974 0.39921,0.23089 0.79842,0.45939 1.19763,0.68552 0.39921,0.22612 0.79842,0.44986 1.19763,0.6712 0.39921,0.22134 0.79842,0.44028 1.19763,0.65683 0.39921,0.21654 0.79842,0.43068 1.19763,0.64241 0.39921,0.21174 0.79842,0.42106 1.19763,0.62798 0.39921,0.20692 0.79843,0.41142 1.19764,0.61353 0.39921,0.2021 0.79842,0.4018 1.19763,0.5991 0.39921,0.19729 0.79842,0.39219 1.19763,0.58469 0.39921,0.1925 0.79842,0.38261 1.19763,0.57033 0.39921,0.18773 0.79842,0.37307 1.19763,0.55604 0.39921,0.18297 0.79842,0.36357 1.19763,0.54181 0.39921,0.17825 0.79842,0.35413 1.19763,0.52768 0.39921,0.17355 0.79842,0.34475 1.19763,0.51364 0.39921,0.16889 0.79842,0.33545 1.19763,0.49972 0.39921,0.16428 0.79842,0.32624 1.19763,0.48594 0.39921,0.1597 0.79842,0.31711 1.19763,0.47228 0.39921,0.15517 0.79842,0.30809 1.19763,0.45879 0.39921,0.15069 0.79842,0.29916 1.19763,0.44544 0.39922,0.14628 0.79843,0.29035 1.19764,0.43227 0.39921,0.14191 0.79842,0.28166 1.19763,0.41928 0.39921,0.13761 0.79842,0.27309 1.19763,0.40647 0.39921,0.13338 0.79842,0.26465 1.19763,0.39386 0.39921,0.12921 0.79842,0.25634 1.19763,0.38145 0.39921,0.12511 0.79842,0.24818 1.19763,0.36925 0.39921,0.12108 0.79842,0.24015 1.19763,0.35726 0.39921,0.11712 0.79842,0.23227 1.19763,0.3455 0.39921,0.11323 0.79842,0.22453 1.19763,0.33395 0.39921,0.10942 0.79842,0.21695 1.19763,0.32263 0.39921,0.10569 0.79842,0.20952 1.19763,0.31155 0.39921,0.10204 0.79842,0.20225 1.19763,0.30071 0.39921,0.0985 0.79842,0.19513 1.19764,0.29008 0.39921,0.095 0.79842,0.18818 1.19763,0.27972 0.39921,0.0915 0.79842,0.18139 1.19763,0.26959 0.39921,0.0882 0.79842,0.17475 1.19763,0.25969 0.39921,0.0849 0.79842,0.16828 1.19763,0.25005 0.39921,0.0818 0.79842,0.16197 1.19763,0.24065 0.39921,0.0787 0.79842,0.15583 1.19763,0.23149 0.39921,0.0757 0.79842,0.14984 1.19763,0.22257 0.39921,0.0727 0.79842,0.14402 1.19763,0.2139 0.39921,0.0699 0.79842,0.13836 1.19763,0.20547 0.39921,0.0671 0.79842,0.13285 1.19763,0.19727 0.39921,0.0644 0.79842,0.12751 1.19763,0.18932 0.39921,0.0618 0.79842,0.12233 1.19763,0.1816 0.39922,0.0593 0.79843,0.1173 1.19764,0.17411 0.39921,0.0568 0.79842,0.11242 1.19763,0.16686 0.39921,0.0544 0.79842,0.10769 1.19763,0.15982 0.39921,0.0521 0.79842,0.10313 1.19763,0.15303 0.39921,0.0499 0.79842,0.0987 1.19763,0.14644 0.39921,0.0478 0.79842,0.0944 1.19763,0.14008 0.39921,0.0457 0.79842,0.0903 1.19763,0.13394 0.39921,0.0436 0.79842,0.0863 1.19763,0.12799 0.39921,0.0417 0.79842,0.0824 1.19763,0.12226 0.39921,0.0398 0.79842,0.0787 1.19763,0.11674 0.39921,0.038 0.79842,0.0751 1.19763,0.11141 0.39921,0.0363 0.79842,0.0717 1.19763,0.10627 0.39921,0.0346 0.79842,0.0684 1.19764,0.10133 0.39921,0.033 0.79842,0.0651 1.19763,0.0966 0.39921,0.0314 0.79842,0.0621 1.19763,0.092 0.39921,0.0299 0.79842,0.0591 1.19763,0.0876 0.39921,0.0285 0.79842,0.0563 1.19763,0.0834 0.39921,0.0271 0.79842,0.0535 1.19763,0.0793 0.39921,0.0258 0.79842,0.0509 1.19763,0.0754 0.39921,0.0245 0.79842,0.0484 1.19763,0.0717 0.39921,0.0233 0.79842,0.046 1.19763,0.0681 0.39921,0.0221 0.79842,0.0437 1.19763,0.0647 0.39921,0.021 0.79842,0.0414 1.19763,0.0614 0.39921,0.0199 0.79842,0.0393 1.19763,0.0582 0.39921,0.0189 0.79842,0.0373 1.19763,0.0552"
       title="t (1/sqrt(2*pi)) * exp(-pow(t,2)/2)"
       id="path5301" />
    <path
       id="path5348"
       title="t sin(pi*t)/(pi*t)"
       d="m 611.08253,151.99545 c 0.0671,-0.1552 0.13413,-0.31143 0.20118,-0.46841 0.0671,-0.15698 0.13413,-0.31471 0.20118,-0.47288 0.067,-0.15818 0.13413,-0.3168 0.20119,-0.47557 0.067,-0.15877 0.13411,-0.31769 0.20118,-0.47645 0.067,-0.15875 0.13412,-0.31733 0.20117,-0.47546 0.0671,-0.15811 0.13412,-0.31575 0.20118,-0.47261 0.067,-0.15685 0.13412,-0.31291 0.20119,-0.46787 0.067,-0.15496 0.13412,-0.30882 0.20117,-0.46125 0.0671,-0.15243 0.13413,-0.30345 0.20118,-0.45273 0.067,-0.14928 0.13412,-0.29681 0.20119,-0.44232 0.0671,-0.14549 0.13412,-0.28894 0.20118,-0.43003 0.067,-0.1411 0.13412,-0.27983 0.20117,-0.4159 0.0671,-0.13607 0.13412,-0.26949 0.20119,-0.39994 0.0671,-0.13045 0.13412,-0.25794 0.20117,-0.38218 0.067,-0.12424 0.13412,-0.24521 0.20119,-0.36267 0.067,-0.11745 0.13411,-0.23135 0.20118,-0.34146 0.0671,-0.11011 0.13411,-0.21639 0.20117,-0.31861 0.0671,-0.10221 0.13413,-0.20035 0.20118,-0.29416 0.067,-0.0938 0.13412,-0.18328 0.20119,-0.2682 0.067,-0.085 0.13412,-0.16525 0.20118,-0.24081 0.0671,-0.0755 0.13412,-0.14628 0.20117,-0.21203 0.067,-0.0657 0.13413,-0.12648 0.20119,-0.18202 0.0671,-0.0556 0.13412,-0.10584 0.20117,-0.15078 0.067,-0.045 0.13412,-0.0845 0.20119,-0.1185 0.067,-0.034 0.13412,-0.0624 0.20118,-0.0852 0.0671,-0.0227 0.13411,-0.0399 0.20117,-0.051 0.067,-0.0113 0.13413,-0.0167 0.20118,-0.0162 0.0671,4.9e-4 0.13414,0.007 0.20118,0.0194 0.0671,0.0124 0.13413,0.0309 0.20119,0.0554 0.0671,0.0245 0.13412,0.0551 0.20119,0.0918 0.0671,0.0367 0.13411,0.0795 0.20117,0.12848 0.067,0.0489 0.13411,0.10405 0.20118,0.16527 0.0671,0.0613 0.13411,0.1286 0.20118,0.20208 0.067,0.0735 0.13412,0.15308 0.20117,0.23872 0.0671,0.0857 0.13413,0.17739 0.20119,0.2751 0.067,0.0977 0.13412,0.20144 0.20117,0.31105 0.0671,0.10961 0.13413,0.22513 0.20119,0.34643 0.0671,0.12129 0.13412,0.24838 0.20118,0.3811 0.067,0.13273 0.13412,0.27111 0.20118,0.41496 0.0671,0.14385 0.13412,0.29319 0.20117,0.44781 0.0671,0.15462 0.13412,0.31455 0.20119,0.47955 0.0671,0.165 0.13411,0.3351 0.20118,0.51004 0.067,0.17493 0.13412,0.35475 0.20117,0.53915 0.0671,0.18438 0.13413,0.37339 0.20119,0.56672 0.0671,0.19333 0.13412,0.39098 0.20118,0.59266 0.067,0.20168 0.13412,0.40741 0.20118,0.61683 0.067,0.20943 0.13412,0.42258 0.20118,0.63911 0.0671,0.21653 0.13412,0.43644 0.20118,0.65938 0.0671,0.22294 0.13412,0.44891 0.20117,0.67754 0.067,0.22862 0.13412,0.45991 0.20119,0.69346 0.067,0.23355 0.13412,0.46938 0.20118,0.70708 0.0671,0.23769 0.13412,0.47727 0.20117,0.71829 0.067,0.241 0.13413,0.48348 0.20119,0.72697 0.067,0.24349 0.13413,0.488 0.20118,0.73309 0.0671,0.24509 0.13412,0.49076 0.20118,0.73655 0.0671,0.2458 0.13412,0.49173 0.20119,0.7373 0.0671,0.24559 0.13411,0.49084 0.20117,0.73527 0.067,0.24444 0.13412,0.48806 0.20119,0.73041 0.067,0.24233 0.1341,0.48339 0.20117,0.72268 0.0671,0.23928 0.13412,0.47679 0.20118,0.71204 0.067,0.23527 0.13412,0.46827 0.20118,0.69853 0.067,0.23025 0.13412,0.45775 0.20117,0.68202 0.0671,0.22428 0.13414,0.4453 0.20119,0.66261 0.067,0.21731 0.13412,0.43088 0.20118,0.64024 0.067,0.20937 0.13412,0.41451 0.20119,0.61497 0.067,0.20045 0.13412,0.39619 0.20117,0.58676 0.0671,0.19059 0.13412,0.37597 0.20119,0.55572 0.067,0.17975 0.13411,0.35383 0.20117,0.52182 0.067,0.16799 0.13412,0.32985 0.20118,0.48516 0.0671,0.15531 0.13412,0.30404 0.20118,0.44578 0.0671,0.14174 0.13412,0.27644 0.20117,0.40373 0.067,0.1273 0.13414,0.24713 0.20119,0.35913 0.067,0.112 0.13412,0.21614 0.20118,0.31205 0.0671,0.0959 0.13412,0.18353 0.20119,0.26256 0.0671,0.079 0.13411,0.14938 0.20117,0.21079 0.0671,0.0614 0.13411,0.11378 0.20118,0.15685 0.067,0.0431 0.13412,0.0768 0.20118,0.10087 0.0671,0.0241 0.13412,0.0384 0.20117,0.043 0.067,0.004 0.13413,-8.8e-4 0.20119,-0.0168 0.067,-0.0157 0.13413,-0.0417 0.20118,-0.078 0.0671,-0.0364 0.13412,-0.0834 0.20118,-0.14094 0.0671,-0.0576 0.13412,-0.12592 0.20119,-0.20511 0.0671,-0.0792 0.13411,-0.16932 0.20117,-0.27048 0.067,-0.10115 0.13412,-0.2134 0.20119,-0.33684 0.067,-0.12344 0.1341,-0.2581 0.20117,-0.40407 0.0671,-0.14595 0.13412,-0.30326 0.20118,-0.47193 0.0671,-0.16868 0.13412,-0.34879 0.20119,-0.5403 0.0671,-0.19152 0.13412,-0.39453 0.20117,-0.60897 0.067,-0.21444 0.13413,-0.44038 0.20118,-0.67774 0.0671,-0.23737 0.13412,-0.48623 0.20118,-0.74645 0.0671,-0.26023 0.13413,-0.5319 0.20119,-0.81489 0.067,-0.28298 0.13411,-0.57733 0.20117,-0.88287 0.0671,-0.30554 0.13412,-0.62234 0.20119,-0.95019 0.0671,-0.32785 0.13412,-0.66684 0.20117,-1.01669 0.0671,-0.34986 0.13412,-0.71067 0.20118,-1.08215 0.067,-0.37147 0.13412,-0.7537 0.20119,-1.14636 0.067,-0.39267 0.13411,-0.79584 0.20117,-1.2092 0.0671,-0.41334 0.13413,-0.83692 0.20118,-1.27038 0.0671,-0.43347 0.13412,-0.87687 0.20118,-1.32982 0.067,-0.45296 0.13413,-0.91552 0.20119,-1.38728 0.067,-0.47175 0.13412,-0.95276 0.20117,-1.44258 0.0671,-0.4898 0.13412,-0.98849 0.20119,-1.49556 0.0671,-0.50707 0.13411,-1.02259 0.20117,-1.54606 0.067,-0.52347 0.13412,-1.05495 0.20118,-1.59392 0.0671,-0.53896 0.13412,-1.08545 0.20118,-1.63895 0.0671,-0.5535 0.13413,-1.11403 0.20118,-1.68104 0.067,-0.56701 0.13413,-1.14055 0.20118,-1.72002 0.067,-0.57948 0.13412,-1.16493 0.20119,-1.75577 0.067,-0.59085 0.13411,-1.1871 0.20118,-1.78816 0.0671,-0.60106 0.13412,-1.20696 0.20118,-1.81706 0.0671,-0.61012 0.13411,-1.22445 0.20118,-1.84237 0.067,-0.61794 0.13411,-1.2395 0.20117,-1.864 0.0671,-0.62452 0.13412,-1.252 0.20119,-1.88182 0.0671,-0.62982 0.13411,-1.26197 0.20117,-1.89579 0.067,-0.63381 0.13413,-1.2693 0.20118,-1.9058 0.0671,-0.63648 0.13413,-1.27399 0.20118,-1.91181 0.0671,-0.63783 0.13413,-1.27597 0.20119,-1.91379 0.0671,-0.63779 0.13411,-1.27524 0.20118,-1.91164 0.067,-0.6364 0.13411,-1.27176 0.20118,-1.90539 0.067,-0.63363 0.13412,-1.26551 0.20117,-1.89499 0.0671,-0.62947 0.13412,-1.25651 0.20118,-1.88044 0.067,-0.62394 0.13413,-1.24474 0.20119,-1.86174 0.067,-0.61701 0.13412,-1.2302 0.20117,-1.83892 0.0671,-0.60871 0.13413,-1.21292 0.20119,-1.81198 0.0671,-0.59905 0.13411,-1.19293 0.20117,-1.78097 0.067,-0.58806 0.13413,-1.17025 0.20119,-1.74596 0.067,-0.5757 0.13411,-1.1449 0.20117,-1.70696 0.0671,-0.56208 0.13412,-1.11698 0.20119,-1.66411 0.0671,-0.54713 0.13412,-1.08646 0.20117,-1.61741 0.067,-0.530935 0.13412,-1.053455 0.20119,-1.566995 0.067,-0.513548 0.13412,-1.018058 0.20118,-1.513009 0.0671,-0.49495 0.13412,-0.980282 0.20117,-1.455492 0.0671,-0.475209 0.13413,-0.940236 0.20119,-1.394598 0.067,-0.454365 0.13411,-0.898002 0.20118,-1.33046 0.067,-0.432458 0.13412,-0.853671 0.20118,-1.263212 0.0671,-0.40954 0.13412,-0.807341 0.20119,-1.193005 0.0671,-0.385663 0.13411,-0.759118 0.20117,-1.119999 0.067,-0.36088 0.13412,-0.709112 0.20117,-1.044358 0.0671,-0.335246 0.13412,-0.657432 0.20119,-0.966255 0.0671,-0.308823 0.13411,-0.604202 0.20118,-0.88587 0.0671,-0.281668 0.13412,-0.549542 0.20117,-0.80339 0.067,-0.253846 0.13413,-0.493581 0.20118,-0.719004 0.0671,-0.225424 0.13414,-0.436452 0.20119,-0.632916 0.0671,-0.196467 0.13412,-0.378284 0.20118,-0.545324 0.0671,-0.167041 0.13412,-0.319216 0.20119,-0.456434 0.0671,-0.137218 0.13411,-0.259389 0.20117,-0.366459 0.067,-0.107068 0.13411,-0.198945 0.20117,-0.275611 0.0671,-0.07666 0.13413,-0.138027 0.20119,-0.184106 0.067,-0.04608 0.13411,-0.07678 0.20118,-0.09216 0.067,-0.01538 0.13412,-0.01535 0.20118,0 0.0671,0.01535 0.13412,0.04612 0.20117,0.09216 0.0671,0.04606 0.13413,0.107473 0.20119,0.184106 0.0671,0.07664 0.13412,0.168573 0.20118,0.275611 0.067,0.10704 0.13412,0.22927 0.20119,0.366459 0.067,0.137188 0.13411,0.289423 0.20117,0.456434 0.067,0.167011 0.13411,0.348886 0.20118,0.545324 0.0671,0.196436 0.13412,0.407519 0.20118,0.632916 0.067,0.225395 0.13413,0.465186 0.20117,0.719004 0.0671,0.25382 0.13413,0.521749 0.20119,0.80339 0.0671,0.281641 0.13412,0.577074 0.20117,0.88587 0.067,0.308796 0.13413,0.631034 0.20119,0.966255 0.067,0.335222 0.13411,0.683503 0.20118,1.044358 0.0671,0.360855 0.13412,0.734359 0.20118,1.119999 0.0671,0.38564 0.13412,0.783487 0.20117,1.193005 0.067,0.409517 0.13412,0.830776 0.20119,1.263212 0.067,0.432436 0.13412,0.876116 0.20118,1.33046 0.0671,0.454341 0.13412,0.919409 0.20117,1.394598 0.067,0.47519 0.13413,0.960561 0.20119,1.455492 0.067,0.494931 0.13413,0.999481 0.20118,1.513009 0.067,0.51352 0.13412,1.03607 0.20118,1.566995 0.0671,0.53093 0.13412,1.07029 0.20119,1.61741 0.0671,0.54712 0.13411,1.10205 0.20117,1.66411 0.067,0.56204 0.13412,1.13127 0.20117,1.70696 0.0671,0.57571 0.13413,1.15792 0.20119,1.74596 0.0671,0.58803 0.13412,1.18193 0.20118,1.78097 0.067,0.59904 0.13412,1.20327 0.20119,1.81198 0.067,0.60871 0.13411,1.22191 0.20117,1.83892 0.0671,0.61699 0.13413,1.23781 0.20118,1.86174 0.0671,0.62392 0.13412,1.25097 0.20119,1.88044 0.0671,0.62947 0.13411,1.26136 0.20118,1.89499 0.067,0.63363 0.13411,1.26899 0.20117,1.90539 0.0671,0.6364 0.13412,1.27385 0.20119,1.91164 0.0671,0.63782 0.13411,1.27596 0.20117,1.91379 0.067,0.63782 0.13411,1.27533 0.20118,1.91181 0.0671,0.6365 0.13412,1.27199 0.20118,1.9058 0.0671,0.63383 0.13413,1.26597 0.20117,1.89579 0.067,0.62982 0.13414,1.2573 0.20119,1.88182 0.067,0.62451 0.13412,1.24605 0.20119,1.864 0.067,0.61793 0.13411,1.23225 0.20118,1.84237 0.0671,0.61011 0.13411,1.21599 0.20117,1.81706 0.067,0.60107 0.13412,1.19731 0.20118,1.78816 0.067,0.59085 0.13412,1.17628 0.20118,1.75577 0.0671,0.57948 0.13413,1.153 0.20118,1.72002 0.067,0.56703 0.13412,1.12753 0.20118,1.68104 0.067,0.55351 0.13413,1.09998 0.20119,1.63895 0.067,0.53899 0.13412,1.07043 0.20117,1.59392 0.0671,0.52349 0.13412,1.03897 0.20118,1.54606 0.0671,0.50709 0.13412,1.00574 0.20119,1.49556 0.067,0.48984 0.13411,0.97081 0.20118,1.44258 0.067,0.47178 0.13412,0.9343 0.20117,1.38728 0.0671,0.45297 0.13412,0.89633 0.20118,1.32982 0.067,0.43347 0.13413,0.85702 0.20119,1.27038 0.067,0.41337 0.13411,0.81651 0.20117,1.2092 0.0671,0.39268 0.13413,0.77486 0.20119,1.14636 0.0671,0.37151 0.13411,0.73227 0.20118,1.08215 0.0671,0.34988 0.13411,0.68881 0.20118,1.01669 0.067,0.32787 0.13411,0.64463 0.20117,0.95019 0.0671,0.30557 0.13412,0.59987 0.20119,0.88287 0.0671,0.283 0.13412,0.55464 0.20117,0.81489 0.0671,0.26025 0.13412,0.50906 0.20118,0.74645 0.067,0.23738 0.13412,0.46328 0.20119,0.67774 0.067,0.21446 0.13412,0.41742 0.20117,0.60897 0.0671,0.19154 0.13413,0.3716 0.20118,0.5403 0.067,0.1687 0.13412,0.32596 0.20119,0.47193 0.067,0.14599 0.13412,0.28061 0.20118,0.40407 0.0671,0.12345 0.13411,0.23566 0.20117,0.33684 0.0671,0.10118 0.13412,0.19127 0.20119,0.27048 0.0671,0.0792 0.13412,0.1475 0.20117,0.20511 0.067,0.0576 0.13413,0.10449 0.20118,0.14094 0.0671,0.0364 0.13412,0.0623 0.20119,0.078 0.067,0.0157 0.13412,0.0211 0.20118,0.0168 0.0671,-0.004 0.13412,-0.0189 0.20117,-0.043 0.067,-0.0241 0.13412,-0.0579 0.20119,-0.10087 0.067,-0.0431 0.13412,-0.0955 0.20118,-0.15685 0.0671,-0.0614 0.13411,-0.1318 0.20118,-0.21079 0.067,-0.079 0.13412,-0.16668 0.20118,-0.26256 0.067,-0.0959 0.13411,-0.20006 0.20117,-0.31205 0.0671,-0.11199 0.13413,-0.23185 0.20119,-0.35913 0.0671,-0.12727 0.13411,-0.26201 0.20117,-0.40373 0.067,-0.14173 0.13413,-0.29048 0.20119,-0.44578 0.067,-0.15529 0.13412,-0.31718 0.20119,-0.48516 0.067,-0.16798 0.13411,-0.34209 0.20117,-0.52182 0.0671,-0.17974 0.13411,-0.36514 0.20118,-0.55572 0.067,-0.19056 0.13411,-0.38632 0.20118,-0.58676 0.067,-0.20045 0.13412,-0.40561 0.20117,-0.61497 0.0671,-0.20935 0.13412,-0.42294 0.20118,-0.64024 0.067,-0.2173 0.13413,-0.43834 0.20119,-0.66261 0.067,-0.22426 0.13412,-0.45178 0.20117,-0.68202 0.0671,-0.23025 0.13413,-0.46327 0.20119,-0.69853 0.0671,-0.23524 0.13412,-0.47276 0.20118,-0.71204 0.0671,-0.23929 0.13412,-0.48035 0.20118,-0.72268 0.067,-0.24234 0.13411,-0.48597 0.20118,-0.73041 0.0671,-0.24443 0.13411,-0.48968 0.20118,-0.73527 0.0671,-0.24557 0.13412,-0.4915 0.20117,-0.7373 0.067,-0.24579 0.13414,-0.49146 0.20118,-0.73655 0.0671,-0.24509 0.13413,-0.4896 0.20119,-0.73309 0.0671,-0.24349 0.13412,-0.48596 0.20119,-0.72697 0.0671,-0.24102 0.13411,-0.48059 0.20117,-0.71829 0.067,-0.2377 0.13411,-0.47352 0.20118,-0.70708 0.067,-0.23356 0.13412,-0.46484 0.20118,-0.69346 0.0671,-0.22863 0.13411,-0.45459 0.20118,-0.67754 0.0671,-0.22295 0.13412,-0.44285 0.20118,-0.65938 0.067,-0.21653 0.13412,-0.42967 0.20117,-0.63911 0.0671,-0.20943 0.13413,-0.41514 0.20119,-0.61683 0.0671,-0.20169 0.13413,-0.39933 0.20118,-0.59266 0.0671,-0.19334 0.13412,-0.38233 0.20118,-0.56672 0.067,-0.18441 0.13412,-0.3642 0.20117,-0.53915 0.0671,-0.17495 0.13414,-0.34503 0.20119,-0.51004 0.0671,-0.16501 0.13412,-0.32492 0.20118,-0.47955 0.067,-0.15463 0.13411,-0.30395 0.20118,-0.44781 0.067,-0.14386 0.13412,-0.28222 0.20118,-0.41496 0.0671,-0.13273 0.13412,-0.2598 0.20117,-0.3811 0.0671,-0.12132 0.13413,-0.23682 0.20119,-0.34643 0.067,-0.10961 0.13413,-0.21332 0.20118,-0.31105 0.067,-0.0977 0.13412,-0.18943 0.20118,-0.2751 0.0671,-0.0857 0.13412,-0.16524 0.20119,-0.23872 0.0671,-0.0735 0.13412,-0.14085 0.20117,-0.20208 0.0671,-0.0613 0.13412,-0.11631 0.20118,-0.16527 0.067,-0.049 0.13412,-0.0917 0.20119,-0.12848 0.067,-0.0367 0.13411,-0.0673 0.20117,-0.0918 0.0671,-0.0245 0.13413,-0.043 0.20118,-0.0554 0.067,-0.0124 0.13412,-0.0189 0.20118,-0.0194 0.0671,-4.9e-4 0.13413,0.005 0.20118,0.0162 0.0671,0.0113 0.13412,0.0283 0.20118,0.051 0.0671,0.0227 0.13412,0.0512 0.20119,0.0852 0.0671,0.034 0.13411,0.0736 0.20117,0.1185 0.067,0.0449 0.13411,0.0953 0.20118,0.15078 0.0671,0.0556 0.13412,0.11628 0.20118,0.18202 0.0671,0.0657 0.13412,0.1365 0.20117,0.21203 0.067,0.0755 0.13414,0.15589 0.20119,0.24081 0.067,0.085 0.13412,0.17439 0.20118,0.2682 0.0671,0.0938 0.13412,0.19195 0.20119,0.29416 0.0671,0.10221 0.13411,0.20851 0.20117,0.31861 0.067,0.1101 0.13413,0.22402 0.20118,0.34146 0.0671,0.11745 0.13412,0.23844 0.20118,0.36267 0.067,0.12423 0.13411,0.25174 0.20118,0.38218 0.0671,0.13044 0.13412,0.26387 0.20118,0.39994 0.067,0.13607 0.13412,0.2748 0.20117,0.4159 0.0671,0.14108 0.13414,0.28454 0.20119,0.43003 0.0671,0.1455 0.13413,0.29304 0.20118,0.44232 0.067,0.14928 0.13412,0.3003 0.20119,0.45273 0.067,0.15243 0.13411,0.30629 0.20118,0.46125 0.067,0.15496 0.13412,0.31103 0.20117,0.46787 0.0671,0.15686 0.13412,0.3145 0.20119,0.47261 0.0671,0.15812 0.1341,0.31671 0.20117,0.47546 0.067,0.15876 0.13412,0.31768 0.20118,0.47645 0.0671,0.15877 0.13413,0.31739 0.20119,0.47557 0.0671,0.15817 0.13411,0.31589 0.20117,0.47288 0.067,0.15698 0.13413,0.31321 0.20118,0.46841"
       style="fill:none;fill-opacity:1;stroke:#000000;stroke-width:3.1155045;stroke-miterlimit:4;stroke-dasharray:none;stroke-opacity:1"
       inkscape:connector-curvature="0" />
    <path
       inkscape:connector-curvature="0"
       id="path5360"
       d="m 669.84128,151.3622 309.28755,0"
       style="fill:none;fill-rule:evenodd;stroke:#000000;stroke-width:2.50200009;stroke-linecap:butt;stroke-linejoin:miter;stroke-miterlimit:4;stroke-dasharray:none;stroke-opacity:1" />
    <text
       xml:space="preserve"
       style="font-style:normal;font-weight:normal;font-size:50px;line-height:125%;font-family:sans-serif;letter-spacing:0px;word-spacing:0px;fill:#000000;fill-opacity:1;stroke:none;stroke-width:1px;stroke-linecap:butt;stroke-linejoin:miter;stroke-opacity:1"
       x="-6.5459366"
       y="152.6132"
       id="text5362"
       sodipodi:linespacing="125%"><tspan
         sodipodi:role="line"
         id="tspan5364"
         x="-6.5459366"
         y="152.6132"
         style="font-style:normal;font-variant:normal;font-weight:normal;font-stretch:normal;font-family:'Times New Roman';-inkscape-font-specification:'Times New Roman, '">RF</tspan></text>
    <text
       sodipodi:linespacing="125%"
       id="text5366"
       y="252.62234"
       x="-6.5459366"
       style="font-style:normal;font-weight:normal;font-size:50px;line-height:125%;font-family:sans-serif;letter-spacing:0px;word-spacing:0px;fill:#000000;fill-opacity:1;stroke:none;stroke-width:1px;stroke-linecap:butt;stroke-linejoin:miter;stroke-opacity:1"
       xml:space="preserve"><tspan
         style="font-style:normal;font-variant:normal;font-weight:normal;font-stretch:normal;font-family:'Times New Roman';-inkscape-font-specification:'Times New Roman, '"
         y="252.62234"
         x="-6.5459366"
         id="tspan5368"
         sodipodi:role="line">SS</tspan></text>
    <text
       xml:space="preserve"
       style="font-style:normal;font-weight:normal;font-size:50px;line-height:125%;font-family:sans-serif;letter-spacing:0px;word-spacing:0px;fill:#000000;fill-opacity:1;stroke:none;stroke-width:1px;stroke-linecap:butt;stroke-linejoin:miter;stroke-opacity:1"
       x="-6.5459366"
       y="351.86551"
       id="text5370"
       sodipodi:linespacing="125%"><tspan
         sodipodi:role="line"
         id="tspan5372"
         x="-6.5459366"
         y="351.86551"
         style="font-style:normal;font-variant:normal;font-weight:normal;font-stretch:normal;font-family:'Times New Roman';-inkscape-font-specification:'Times New Roman, '">PE</tspan></text>
    <text
       sodipodi:linespacing="125%"
       id="text5374"
       y="452.62234"
       x="-6.5459366"
       style="font-style:normal;font-weight:normal;font-size:50px;line-height:125%;font-family:sans-serif;letter-spacing:0px;word-spacing:0px;fill:#000000;fill-opacity:1;stroke:none;stroke-width:1px;stroke-linecap:butt;stroke-linejoin:miter;stroke-opacity:1"
       xml:space="preserve"><tspan
         style="font-style:normal;font-variant:normal;font-weight:normal;font-stretch:normal;font-family:'Times New Roman';-inkscape-font-specification:'Times New Roman, '"
         y="452.62234"
         x="-6.5459366"
         id="tspan5376"
         sodipodi:role="line">RO</tspan></text>
    <text
       xml:space="preserve"
       style="font-style:normal;font-weight:normal;font-size:50px;line-height:125%;font-family:sans-serif;letter-spacing:0px;word-spacing:0px;fill:#000000;fill-opacity:1;stroke:none;stroke-width:1px;stroke-linecap:butt;stroke-linejoin:miter;stroke-opacity:1"
       x="-6.5459366"
       y="551.86554"
       id="text5378"
       sodipodi:linespacing="125%"><tspan
         sodipodi:role="line"
         id="tspan5380"
         x="-6.5459366"
         y="551.86554"
         style="font-style:normal;font-variant:normal;font-weight:normal;font-stretch:normal;font-family:'Times New Roman';-inkscape-font-specification:'Times New Roman, '">AQ</tspan></text>
    <g
       id="g5407"
       transform="translate(0,1.4420578)">
      <g
         transform="matrix(0.97778006,0,0,0.97778006,325.36868,374.8253)"
         id="g5388">
        <g
           transform="translate(34.075112,0)"
           id="g5393">
          <g
             transform="matrix(1.7049251,0,0,0.99238495,-68.544411,-1.1238489)"
             id="g5398">
            <path
               style="fill:none;fill-rule:evenodd;stroke:#000000;stroke-width:1.93521857;stroke-linecap:butt;stroke-linejoin:miter;stroke-miterlimit:4;stroke-dasharray:none;stroke-opacity:1"
               d="m 97.342896,-125.76338 11.670434,-44.28236"
               id="path5382"
               inkscape:connector-curvature="0" />
            <path
               inkscape:connector-curvature="0"
               id="path5403"
               d="m 172.94836,-170.04576 11.67043,44.28236"
               style="fill:none;fill-rule:evenodd;stroke:#000000;stroke-width:1.96722209;stroke-linecap:butt;stroke-linejoin:miter;stroke-miterlimit:0;stroke-dasharray:none;stroke-opacity:1" />
          </g>
        </g>
      </g>
      <path
         style="fill:none;fill-rule:evenodd;stroke:#000000;stroke-width:2.50200009;stroke-linecap:butt;stroke-linejoin:miter;stroke-miterlimit:4;stroke-dasharray:none;stroke-opacity:1"
         d="m 471.90991,209.73297 109.55968,0"
         id="path5405"
         inkscape:connector-curvature="0" />
      <path
         inkscape:connector-curvature="0"
         id="path5404"
         d="m 776.90977,408.97453 105.22089,0"
         style="fill:none;fill-rule:evenodd;stroke:#000000;stroke-width:2.50200033;stroke-linecap:butt;stroke-linejoin:miter;stroke-miterlimit:4;stroke-dasharray:none;stroke-opacity:1" />
      <path
         style="fill:none;fill-rule:evenodd;stroke:#000000;stroke-width:2.50200033;stroke-linecap:butt;stroke-linejoin:miter;stroke-miterlimit:4;stroke-dasharray:none;stroke-opacity:1"
         d="m 694.50187,492.88389 46.61842,0"
         id="path5412"
         inkscape:connector-curvature="0" />
      <path
         style="fill:none;fill-rule:evenodd;stroke:#000000;stroke-width:2.50200033;stroke-linecap:butt;stroke-linejoin:miter;stroke-miterlimit:4;stroke-dasharray:none;stroke-opacity:1"
         d="m 776.90977,510.97453 105.22089,0"
         id="path5414"
         inkscape:connector-curvature="0" />
      <path
         inkscape:connector-curvature="0"
         id="path5416"
         d="m 778.16079,551.1803 0,-41.45561"
         style="fill:none;fill-rule:evenodd;stroke:#000000;stroke-width:2.50200057;stroke-linecap:butt;stroke-linejoin:miter;stroke-miterlimit:4;stroke-dasharray:none;stroke-opacity:1" />
      <path
         style="fill:none;fill-rule:evenodd;stroke:#000000;stroke-width:2.50200057;stroke-linecap:butt;stroke-linejoin:miter;stroke-miterlimit:4;stroke-dasharray:none;stroke-opacity:1"
         d="m 880.87966,551.1803 0,-41.45561"
         id="path5418"
         inkscape:connector-curvature="0" />
    </g>
    <path
       inkscape:connector-curvature="0"
       id="path5415"
       d="m 730.18385,252.12816 174.51148,0"
       style="fill:none;fill-rule:evenodd;stroke:#000000;stroke-width:2.50199986;stroke-linecap:butt;stroke-linejoin:miter;stroke-miterlimit:4;stroke-dasharray:none;stroke-opacity:1" />
    <g
       transform="matrix(0.5733945,0,0,0.42057955,339.91254,147.43615)"
       id="g5172">
      <g
         id="g5174"
         transform="matrix(0.97778006,0,0,0.97778006,325.36868,374.8253)">
        <g
           id="g5176"
           transform="translate(34.075112,0)">
          <g
             id="g5178"
             transform="matrix(1.7049251,0,0,0.99238495,-68.544411,-1.1238489)">
            <path
               inkscape:connector-curvature="0"
               id="path5180"
               d="m 97.342896,-125.76338 11.670434,-44.28236"
               style="fill:none;fill-rule:evenodd;stroke:#000000;stroke-width:3.94075274;stroke-linecap:butt;stroke-linejoin:miter;stroke-miterlimit:4;stroke-dasharray:none;stroke-opacity:1" />
            <path
               style="fill:none;fill-rule:evenodd;stroke:#000000;stroke-width:4.00592279;stroke-linecap:butt;stroke-linejoin:miter;stroke-miterlimit:0;stroke-dasharray:none;stroke-opacity:1"
               d="m 171.06489,-170.04576 11.67043,44.28236"
               id="path5182"
               inkscape:connector-curvature="0" />
          </g>
        </g>
      </g>
      <path
         inkscape:connector-curvature="0"
         id="path5184"
         d="m 470.42682,210.44538 109.55968,0"
         style="fill:none;fill-rule:evenodd;stroke:#000000;stroke-width:5.09490967;stroke-linecap:butt;stroke-linejoin:miter;stroke-miterlimit:4;stroke-dasharray:none;stroke-opacity:1" />
    </g>
    <path
       style="fill:none;fill-rule:evenodd;stroke:#000000;stroke-width:2.50200009;stroke-linecap:butt;stroke-linejoin:miter;stroke-miterlimit:4;stroke-dasharray:none;stroke-opacity:1"
       d="m 597.85382,252.25077 4,0"
       id="path5186"
       inkscape:connector-curvature="0" />
    <g
       id="g5188"
       transform="matrix(0.5733945,0,0,-0.42057955,339.91254,340.93938)">
      <g
         id="g5204">
        <g
           id="g5190"
           transform="matrix(0.97778006,0,0,0.97778006,325.36868,374.8253)">
          <g
             id="g5192"
             transform="translate(34.075112,0)">
            <g
               id="g5194"
               transform="matrix(1.7049251,0,0,0.99238495,-68.544411,-1.1238489)">
              <path
                 inkscape:connector-curvature="0"
                 id="path5196"
                 d="m 182.67522,-170.16111 11.67044,-44.28236"
                 style="fill:none;fill-rule:evenodd;stroke:#000000;stroke-width:4.00592279;stroke-linecap:butt;stroke-linejoin:miter;stroke-miterlimit:4;stroke-dasharray:none;stroke-opacity:1" />
              <path
                 style="fill:none;fill-rule:evenodd;stroke:#000000;stroke-width:4.00592279;stroke-linecap:butt;stroke-linejoin:miter;stroke-miterlimit:4;stroke-dasharray:none;stroke-opacity:1"
                 d="m 235.09168,-164.97076 -11.67044,-49.5927"
                 id="path5202"
                 inkscape:connector-curvature="0" />
            </g>
          </g>
        </g>
        <path
           inkscape:connector-curvature="0"
           id="path5200"
           d="m 612.55061,167.69674 54.77991,0"
           style="fill:none;fill-rule:evenodd;stroke:#000000;stroke-width:5.09490967;stroke-linecap:butt;stroke-linejoin:miter;stroke-miterlimit:4;stroke-dasharray:none;stroke-opacity:1" />
      </g>
    </g>
    <g
       transform="matrix(0.50241324,0,0,1,676.84212,4.0615136)"
       id="g5212">
      <g
         id="g5214"
         transform="matrix(0.97778006,0,0,0.97778006,325.36868,374.8253)">
        <g
           id="g5216"
           transform="translate(34.075112,0)">
          <g
             id="g5218"
             transform="matrix(1.7049251,0,0,0.99238495,-68.544411,-1.1238489)" />
        </g>
      </g>
    </g>
    <path
       style="fill:none;fill-rule:evenodd;stroke:#000000;stroke-width:0.50199997;stroke-linecap:butt;stroke-linejoin:miter;stroke-miterlimit:4;stroke-dasharray:none;stroke-opacity:1"
       d="m 975.94308,253.12818 3.18401,0"
       id="path5247"
       inkscape:connector-curvature="0" />
    <g
       transform="translate(227.53451,100.68522)"
       id="g5249">
      <g
         id="g5306">
        <g
           id="g5271">
          <g
             id="g5251"
             transform="matrix(0.97778006,0,0,0.97778006,325.36868,374.8253)">
            <g
               id="g5253"
               transform="translate(34.075112,0)">
              <g
                 id="g5255"
                 transform="matrix(1.7049251,0,0,0.99238495,-68.544411,-1.1238489)">
                <path
                   inkscape:connector-curvature="0"
                   id="path5257"
                   d="m 97.342896,-125.76338 11.670434,-44.28236"
                   style="fill:none;fill-rule:evenodd;stroke:#000000;stroke-width:1.93521857;stroke-linecap:butt;stroke-linejoin:miter;stroke-miterlimit:4;stroke-dasharray:none;stroke-opacity:1" />
                <path
                   style="fill:none;fill-rule:evenodd;stroke:#000000;stroke-width:1.96722209;stroke-linecap:butt;stroke-linejoin:miter;stroke-miterlimit:0;stroke-dasharray:none;stroke-opacity:1"
                   d="m 130.29816,-170.04576 11.67043,44.28236"
                   id="path5259"
                   inkscape:connector-curvature="0" />
                <path
                   style="fill:none;fill-rule:evenodd;stroke:#000000;stroke-width:1.93521857;stroke-linecap:butt;stroke-linejoin:miter;stroke-miterlimit:4;stroke-dasharray:none;stroke-opacity:1"
                   d="m 143.85539,-22.702043 11.67044,-44.282363"
                   id="path5399"
                   inkscape:connector-curvature="0" />
                <path
                   inkscape:connector-curvature="0"
                   id="path5401"
                   d="M 228.44717,-22.702043 216.77673,-66.984406"
                   style="fill:none;fill-rule:evenodd;stroke:#000000;stroke-width:1.93521857;stroke-linecap:butt;stroke-linejoin:miter;stroke-miterlimit:4;stroke-dasharray:none;stroke-opacity:1" />
                <path
                   inkscape:connector-curvature="0"
                   id="path5408"
                   d="M 143.8583,-22.724165 132.18786,21.558203"
                   style="fill:none;fill-rule:evenodd;stroke:#000000;stroke-width:1.93521857;stroke-linecap:butt;stroke-linejoin:miter;stroke-miterlimit:4;stroke-dasharray:none;stroke-opacity:1" />
                <path
                   style="fill:none;fill-rule:evenodd;stroke:#000000;stroke-width:1.93521869;stroke-linecap:butt;stroke-linejoin:miter;stroke-miterlimit:4;stroke-dasharray:none;stroke-opacity:1"
                   d="m 94.424555,-24.797644 11.670515,46.3739"
                   id="path5410"
                   inkscape:connector-curvature="0" />
              </g>
            </g>
          </g>
          <path
             inkscape:connector-curvature="0"
             id="path5261"
             d="m 471.90987,209.73295 38.4555,0"
             style="fill:none;fill-rule:evenodd;stroke:#000000;stroke-width:2.50199986;stroke-linecap:butt;stroke-linejoin:miter;stroke-miterlimit:4;stroke-dasharray:none;stroke-opacity:1" />
          <path
             style="fill:none;fill-rule:evenodd;stroke:#000000;stroke-width:2.50199986;stroke-linecap:butt;stroke-linejoin:miter;stroke-miterlimit:4;stroke-dasharray:none;stroke-opacity:1"
             d="m 465.54379,225.73293 50.92234,0"
             id="path5263"
             inkscape:connector-curvature="0" />
          <path
             inkscape:connector-curvature="0"
             id="path5265"
             d="m 468.85945,217.73294 44.95417,0"
             style="fill:none;fill-rule:evenodd;stroke:#000000;stroke-width:2.50199986;stroke-linecap:butt;stroke-linejoin:miter;stroke-miterlimit:4;stroke-dasharray:none;stroke-opacity:1" />
          <path
             inkscape:connector-curvature="0"
             id="path5267"
             d="m 462.09554,233.73294 57.68627,0"
             style="fill:none;fill-rule:evenodd;stroke:#000000;stroke-width:2.50199986;stroke-linecap:butt;stroke-linejoin:miter;stroke-miterlimit:4;stroke-dasharray:none;stroke-opacity:1" />
          <path
             style="fill:none;fill-rule:evenodd;stroke:#000000;stroke-width:2.50199986;stroke-linecap:butt;stroke-linejoin:miter;stroke-miterlimit:4;stroke-dasharray:none;stroke-opacity:1"
             d="m 458.51464,241.73294 64.9807,0"
             id="path5269"
             inkscape:connector-curvature="0" />
        </g>
        <g
           transform="matrix(1,0,0,-1,0,501.35396)"
           id="g5283">
          <g
             transform="matrix(0.97778006,0,0,0.97778006,325.36868,374.8253)"
             id="g5285">
            <g
               transform="translate(34.075112,0)"
               id="g5287">
              <g
                 transform="matrix(1.7049251,0,0,0.99238495,-68.544411,-1.1238489)"
                 id="g5289">
                <path
                   style="fill:none;fill-rule:evenodd;stroke:#000000;stroke-width:1.93521857;stroke-linecap:butt;stroke-linejoin:miter;stroke-miterlimit:4;stroke-dasharray:none;stroke-opacity:1"
                   d="m 97.342896,-125.76338 11.670434,-44.28236"
                   id="path5291"
                   inkscape:connector-curvature="0" />
                <path
                   inkscape:connector-curvature="0"
                   id="path5293"
                   d="m 130.29816,-170.04576 11.67043,44.28236"
                   style="fill:none;fill-rule:evenodd;stroke:#000000;stroke-width:1.96722209;stroke-linecap:butt;stroke-linejoin:miter;stroke-miterlimit:0;stroke-dasharray:none;stroke-opacity:1" />
              </g>
            </g>
          </g>
          <path
             style="fill:none;fill-rule:evenodd;stroke:#000000;stroke-width:2.50199986;stroke-linecap:butt;stroke-linejoin:miter;stroke-miterlimit:4;stroke-dasharray:none;stroke-opacity:1"
             d="m 471.90987,209.73295 38.4555,0"
             id="path5295"
             inkscape:connector-curvature="0" />
          <path
             inkscape:connector-curvature="0"
             id="path5297"
             d="m 465.54379,225.73293 50.92234,0"
             style="fill:none;fill-rule:evenodd;stroke:#000000;stroke-width:2.50199986;stroke-linecap:butt;stroke-linejoin:miter;stroke-miterlimit:4;stroke-dasharray:none;stroke-opacity:1" />
          <path
             style="fill:none;fill-rule:evenodd;stroke:#000000;stroke-width:2.50199986;stroke-linecap:butt;stroke-linejoin:miter;stroke-miterlimit:4;stroke-dasharray:none;stroke-opacity:1"
             d="m 468.85945,217.73294 44.95417,0"
             id="path5299"
             inkscape:connector-curvature="0" />
          <path
             style="fill:none;fill-rule:evenodd;stroke:#000000;stroke-width:2.50199986;stroke-linecap:butt;stroke-linejoin:miter;stroke-miterlimit:4;stroke-dasharray:none;stroke-opacity:1"
             d="m 462.09554,233.73294 57.68627,0"
             id="path5302"
             inkscape:connector-curvature="0" />
          <path
             inkscape:connector-curvature="0"
             id="path5304"
             d="m 458.51464,241.73294 64.9807,0"
             style="fill:none;fill-rule:evenodd;stroke:#000000;stroke-width:2.50199986;stroke-linecap:butt;stroke-linejoin:miter;stroke-miterlimit:4;stroke-dasharray:none;stroke-opacity:1" />
        </g>
      </g>
      <g
         id="g5330"
         transform="translate(221.67588,0)">
        <g
           id="g5332">
          <g
             transform="matrix(0.97778006,0,0,0.97778006,325.36868,374.8253)"
             id="g5334">
            <g
               transform="translate(34.075112,0)"
               id="g5336">
              <g
                 transform="matrix(1.7049251,0,0,0.99238495,-68.544411,-1.1238489)"
                 id="g5338">
                <path
                   style="fill:none;fill-rule:evenodd;stroke:#000000;stroke-width:1.93521857;stroke-linecap:butt;stroke-linejoin:miter;stroke-miterlimit:4;stroke-dasharray:none;stroke-opacity:1"
                   d="m 97.342896,-125.76338 11.670434,-44.28236"
                   id="path5340"
                   inkscape:connector-curvature="0" />
                <path
                   inkscape:connector-curvature="0"
                   id="path5342"
                   d="m 130.29816,-170.04576 11.67043,44.28236"
                   style="fill:none;fill-rule:evenodd;stroke:#000000;stroke-width:1.96722209;stroke-linecap:butt;stroke-linejoin:miter;stroke-miterlimit:0;stroke-dasharray:none;stroke-opacity:1" />
              </g>
            </g>
          </g>
          <path
             style="fill:none;fill-rule:evenodd;stroke:#000000;stroke-width:2.50199986;stroke-linecap:butt;stroke-linejoin:miter;stroke-miterlimit:4;stroke-dasharray:none;stroke-opacity:1"
             d="m 471.90987,209.73295 38.4555,0"
             id="path5344"
             inkscape:connector-curvature="0" />
          <path
             inkscape:connector-curvature="0"
             id="path5346"
             d="m 465.54379,225.73293 50.92234,0"
             style="fill:none;fill-rule:evenodd;stroke:#000000;stroke-width:2.50199986;stroke-linecap:butt;stroke-linejoin:miter;stroke-miterlimit:4;stroke-dasharray:none;stroke-opacity:1" />
          <path
             style="fill:none;fill-rule:evenodd;stroke:#000000;stroke-width:2.50199986;stroke-linecap:butt;stroke-linejoin:miter;stroke-miterlimit:4;stroke-dasharray:none;stroke-opacity:1"
             d="m 468.85945,217.73294 44.95417,0"
             id="path5349"
             inkscape:connector-curvature="0" />
          <path
             style="fill:none;fill-rule:evenodd;stroke:#000000;stroke-width:2.50199986;stroke-linecap:butt;stroke-linejoin:miter;stroke-miterlimit:4;stroke-dasharray:none;stroke-opacity:1"
             d="m 462.09554,233.73294 57.68627,0"
             id="path5351"
             inkscape:connector-curvature="0" />
          <path
             inkscape:connector-curvature="0"
             id="path5353"
             d="m 458.51464,241.73294 64.9807,0"
             style="fill:none;fill-rule:evenodd;stroke:#000000;stroke-width:2.50199986;stroke-linecap:butt;stroke-linejoin:miter;stroke-miterlimit:4;stroke-dasharray:none;stroke-opacity:1" />
          <g
             id="g5385"
             transform="translate(0,-69.243124)">
            <path
               style="fill:none;fill-rule:evenodd;stroke:#000000;stroke-width:1.93521857;stroke-linecap:butt;stroke-linejoin:miter;stroke-miterlimit:4;stroke-dasharray:none;stroke-opacity:1"
               d="m 97.342896,-156.68061 11.670434,-44.28236"
               id="path5377"
               inkscape:connector-curvature="0"
               transform="matrix(1.6670418,0,0,0.97033422,291.66529,373.72642)" />
            <path
               inkscape:connector-curvature="0"
               id="path5379"
               d="m 130.29816,-200.96299 11.67043,44.28236"
               style="fill:none;fill-rule:evenodd;stroke:#000000;stroke-width:1.96722209;stroke-linecap:butt;stroke-linejoin:miter;stroke-miterlimit:0;stroke-dasharray:none;stroke-opacity:1"
               transform="matrix(1.6670418,0,0,0.97033422,291.66529,373.72642)" />
            <path
               style="fill:none;fill-rule:evenodd;stroke:#000000;stroke-width:2.50199986;stroke-linecap:butt;stroke-linejoin:miter;stroke-miterlimit:4;stroke-dasharray:none;stroke-opacity:1"
               d="m 471.90987,179.73295 38.4555,0"
               id="path5381"
               inkscape:connector-curvature="0" />
          </g>
        </g>
        <g
           id="g5355"
           transform="matrix(1,0,0,-1,0,501.35396)">
          <g
             id="g5357"
             transform="matrix(0.97778006,0,0,0.97778006,325.36868,374.8253)">
            <g
               id="g5359"
               transform="translate(34.075112,0)">
              <g
                 id="g5361"
                 transform="matrix(1.7049251,0,0,0.99238495,-68.544411,-1.1238489)">
                <path
                   inkscape:connector-curvature="0"
                   id="path5363"
                   d="m 97.342896,-125.76338 11.670434,-44.28236"
                   style="fill:none;fill-rule:evenodd;stroke:#000000;stroke-width:1.93521857;stroke-linecap:butt;stroke-linejoin:miter;stroke-miterlimit:4;stroke-dasharray:none;stroke-opacity:1" />
                <path
                   style="fill:none;fill-rule:evenodd;stroke:#000000;stroke-width:1.96722209;stroke-linecap:butt;stroke-linejoin:miter;stroke-miterlimit:0;stroke-dasharray:none;stroke-opacity:1"
                   d="m 130.29816,-170.04576 11.67043,44.28236"
                   id="path5365"
                   inkscape:connector-curvature="0" />
              </g>
            </g>
          </g>
          <path
             inkscape:connector-curvature="0"
             id="path5367"
             d="m 471.90987,209.73295 38.4555,0"
             style="fill:none;fill-rule:evenodd;stroke:#000000;stroke-width:2.50199986;stroke-linecap:butt;stroke-linejoin:miter;stroke-miterlimit:4;stroke-dasharray:none;stroke-opacity:1" />
          <path
             style="fill:none;fill-rule:evenodd;stroke:#000000;stroke-width:2.50199986;stroke-linecap:butt;stroke-linejoin:miter;stroke-miterlimit:4;stroke-dasharray:none;stroke-opacity:1"
             d="m 465.54379,225.73293 50.92234,0"
             id="path5369"
             inkscape:connector-curvature="0" />
          <path
             inkscape:connector-curvature="0"
             id="path5371"
             d="m 468.85945,217.73294 44.95417,0"
             style="fill:none;fill-rule:evenodd;stroke:#000000;stroke-width:2.50199986;stroke-linecap:butt;stroke-linejoin:miter;stroke-miterlimit:4;stroke-dasharray:none;stroke-opacity:1" />
          <path
             inkscape:connector-curvature="0"
             id="path5373"
             d="m 462.09554,233.73294 57.68627,0"
             style="fill:none;fill-rule:evenodd;stroke:#000000;stroke-width:2.50199986;stroke-linecap:butt;stroke-linejoin:miter;stroke-miterlimit:4;stroke-dasharray:none;stroke-opacity:1" />
          <path
             style="fill:none;fill-rule:evenodd;stroke:#000000;stroke-width:2.50199986;stroke-linecap:butt;stroke-linejoin:miter;stroke-miterlimit:4;stroke-dasharray:none;stroke-opacity:1"
             d="m 458.51464,241.73294 64.9807,0"
             id="path5375"
             inkscape:connector-curvature="0" />
        </g>
      </g>
    </g>
    <path
       inkscape:connector-curvature="0"
       id="path5406"
       d="m 898.489,451.3622 80.64107,0"
       style="fill:none;fill-rule:evenodd;stroke:#000000;stroke-width:2.52029634;stroke-linecap:butt;stroke-linejoin:miter;stroke-miterlimit:4;stroke-dasharray:none;stroke-opacity:1" />
    <path
       style="fill:none;fill-rule:evenodd;stroke:#000000;stroke-width:2.52029657;stroke-linecap:butt;stroke-linejoin:miter;stroke-miterlimit:4;stroke-dasharray:none;stroke-opacity:1"
       d="m 879.74997,551.36221 99.3801,0"
       id="path5420"
       inkscape:connector-curvature="0" />
  </g>
</svg>
